%TF.GenerationSoftware,KiCad,Pcbnew,(6.0.2)*%
%TF.CreationDate,2022-05-17T13:53:54+02:00*%
%TF.ProjectId,PCB_VuilBak,5043425f-5675-4696-9c42-616b2e6b6963,rev?*%
%TF.SameCoordinates,Original*%
%TF.FileFunction,Legend,Bot*%
%TF.FilePolarity,Positive*%
%FSLAX46Y46*%
G04 Gerber Fmt 4.6, Leading zero omitted, Abs format (unit mm)*
G04 Created by KiCad (PCBNEW (6.0.2)) date 2022-05-17 13:53:54*
%MOMM*%
%LPD*%
G01*
G04 APERTURE LIST*
%ADD10C,0.150000*%
%ADD11C,0.120000*%
%ADD12C,0.127000*%
%ADD13C,0.200000*%
G04 APERTURE END LIST*
D10*
%TO.C,C8*%
X147937142Y-27883333D02*
X147984761Y-27835714D01*
X148032380Y-27692857D01*
X148032380Y-27597619D01*
X147984761Y-27454761D01*
X147889523Y-27359523D01*
X147794285Y-27311904D01*
X147603809Y-27264285D01*
X147460952Y-27264285D01*
X147270476Y-27311904D01*
X147175238Y-27359523D01*
X147080000Y-27454761D01*
X147032380Y-27597619D01*
X147032380Y-27692857D01*
X147080000Y-27835714D01*
X147127619Y-27883333D01*
X147460952Y-28454761D02*
X147413333Y-28359523D01*
X147365714Y-28311904D01*
X147270476Y-28264285D01*
X147222857Y-28264285D01*
X147127619Y-28311904D01*
X147080000Y-28359523D01*
X147032380Y-28454761D01*
X147032380Y-28645238D01*
X147080000Y-28740476D01*
X147127619Y-28788095D01*
X147222857Y-28835714D01*
X147270476Y-28835714D01*
X147365714Y-28788095D01*
X147413333Y-28740476D01*
X147460952Y-28645238D01*
X147460952Y-28454761D01*
X147508571Y-28359523D01*
X147556190Y-28311904D01*
X147651428Y-28264285D01*
X147841904Y-28264285D01*
X147937142Y-28311904D01*
X147984761Y-28359523D01*
X148032380Y-28454761D01*
X148032380Y-28645238D01*
X147984761Y-28740476D01*
X147937142Y-28788095D01*
X147841904Y-28835714D01*
X147651428Y-28835714D01*
X147556190Y-28788095D01*
X147508571Y-28740476D01*
X147460952Y-28645238D01*
%TO.C,R9*%
X140416666Y-78232380D02*
X140750000Y-77756190D01*
X140988095Y-78232380D02*
X140988095Y-77232380D01*
X140607142Y-77232380D01*
X140511904Y-77280000D01*
X140464285Y-77327619D01*
X140416666Y-77422857D01*
X140416666Y-77565714D01*
X140464285Y-77660952D01*
X140511904Y-77708571D01*
X140607142Y-77756190D01*
X140988095Y-77756190D01*
X139940476Y-78232380D02*
X139750000Y-78232380D01*
X139654761Y-78184761D01*
X139607142Y-78137142D01*
X139511904Y-77994285D01*
X139464285Y-77803809D01*
X139464285Y-77422857D01*
X139511904Y-77327619D01*
X139559523Y-77280000D01*
X139654761Y-77232380D01*
X139845238Y-77232380D01*
X139940476Y-77280000D01*
X139988095Y-77327619D01*
X140035714Y-77422857D01*
X140035714Y-77660952D01*
X139988095Y-77756190D01*
X139940476Y-77803809D01*
X139845238Y-77851428D01*
X139654761Y-77851428D01*
X139559523Y-77803809D01*
X139511904Y-77756190D01*
X139464285Y-77660952D01*
%TO.C,U3*%
X148671904Y-78259380D02*
X148671904Y-79068904D01*
X148624285Y-79164142D01*
X148576666Y-79211761D01*
X148481428Y-79259380D01*
X148290952Y-79259380D01*
X148195714Y-79211761D01*
X148148095Y-79164142D01*
X148100476Y-79068904D01*
X148100476Y-78259380D01*
X147719523Y-78259380D02*
X147100476Y-78259380D01*
X147433809Y-78640333D01*
X147290952Y-78640333D01*
X147195714Y-78687952D01*
X147148095Y-78735571D01*
X147100476Y-78830809D01*
X147100476Y-79068904D01*
X147148095Y-79164142D01*
X147195714Y-79211761D01*
X147290952Y-79259380D01*
X147576666Y-79259380D01*
X147671904Y-79211761D01*
X147719523Y-79164142D01*
%TO.C,R3*%
X174153630Y-75683333D02*
X173677440Y-75350000D01*
X174153630Y-75111904D02*
X173153630Y-75111904D01*
X173153630Y-75492857D01*
X173201250Y-75588095D01*
X173248869Y-75635714D01*
X173344107Y-75683333D01*
X173486964Y-75683333D01*
X173582202Y-75635714D01*
X173629821Y-75588095D01*
X173677440Y-75492857D01*
X173677440Y-75111904D01*
X173153630Y-76016666D02*
X173153630Y-76635714D01*
X173534583Y-76302380D01*
X173534583Y-76445238D01*
X173582202Y-76540476D01*
X173629821Y-76588095D01*
X173725059Y-76635714D01*
X173963154Y-76635714D01*
X174058392Y-76588095D01*
X174106011Y-76540476D01*
X174153630Y-76445238D01*
X174153630Y-76159523D01*
X174106011Y-76064285D01*
X174058392Y-76016666D01*
%TO.C,R7*%
X140232380Y-27933333D02*
X139756190Y-27600000D01*
X140232380Y-27361904D02*
X139232380Y-27361904D01*
X139232380Y-27742857D01*
X139280000Y-27838095D01*
X139327619Y-27885714D01*
X139422857Y-27933333D01*
X139565714Y-27933333D01*
X139660952Y-27885714D01*
X139708571Y-27838095D01*
X139756190Y-27742857D01*
X139756190Y-27361904D01*
X139232380Y-28266666D02*
X139232380Y-28933333D01*
X140232380Y-28504761D01*
%TO.C,Q1*%
X170776488Y-73497619D02*
X170871726Y-73450000D01*
X170966964Y-73354761D01*
X171109821Y-73211904D01*
X171205059Y-73164285D01*
X171300297Y-73164285D01*
X171252678Y-73402380D02*
X171347916Y-73354761D01*
X171443154Y-73259523D01*
X171490773Y-73069047D01*
X171490773Y-72735714D01*
X171443154Y-72545238D01*
X171347916Y-72450000D01*
X171252678Y-72402380D01*
X171062202Y-72402380D01*
X170966964Y-72450000D01*
X170871726Y-72545238D01*
X170824107Y-72735714D01*
X170824107Y-73069047D01*
X170871726Y-73259523D01*
X170966964Y-73354761D01*
X171062202Y-73402380D01*
X171252678Y-73402380D01*
X169871726Y-73402380D02*
X170443154Y-73402380D01*
X170157440Y-73402380D02*
X170157440Y-72402380D01*
X170252678Y-72545238D01*
X170347916Y-72640476D01*
X170443154Y-72688095D01*
%TO.C,C1*%
X137977142Y-71133333D02*
X138024761Y-71085714D01*
X138072380Y-70942857D01*
X138072380Y-70847619D01*
X138024761Y-70704761D01*
X137929523Y-70609523D01*
X137834285Y-70561904D01*
X137643809Y-70514285D01*
X137500952Y-70514285D01*
X137310476Y-70561904D01*
X137215238Y-70609523D01*
X137120000Y-70704761D01*
X137072380Y-70847619D01*
X137072380Y-70942857D01*
X137120000Y-71085714D01*
X137167619Y-71133333D01*
X138072380Y-72085714D02*
X138072380Y-71514285D01*
X138072380Y-71800000D02*
X137072380Y-71800000D01*
X137215238Y-71704761D01*
X137310476Y-71609523D01*
X137358095Y-71514285D01*
%TO.C,S2*%
X173275981Y-65891853D02*
X173185879Y-65921887D01*
X173035709Y-65921887D01*
X172975641Y-65891853D01*
X172945607Y-65861819D01*
X172915573Y-65801751D01*
X172915573Y-65741683D01*
X172945607Y-65681615D01*
X172975641Y-65651581D01*
X173035709Y-65621547D01*
X173155845Y-65591513D01*
X173215913Y-65561479D01*
X173245947Y-65531445D01*
X173275981Y-65471377D01*
X173275981Y-65411309D01*
X173245947Y-65351241D01*
X173215913Y-65321207D01*
X173155845Y-65291173D01*
X173005675Y-65291173D01*
X172915573Y-65321207D01*
X172675301Y-65351241D02*
X172645267Y-65321207D01*
X172585199Y-65291173D01*
X172435029Y-65291173D01*
X172374961Y-65321207D01*
X172344927Y-65351241D01*
X172314893Y-65411309D01*
X172314893Y-65471377D01*
X172344927Y-65561479D01*
X172705335Y-65921887D01*
X172314893Y-65921887D01*
%TO.C,C6*%
X144237142Y-27833333D02*
X144284761Y-27785714D01*
X144332380Y-27642857D01*
X144332380Y-27547619D01*
X144284761Y-27404761D01*
X144189523Y-27309523D01*
X144094285Y-27261904D01*
X143903809Y-27214285D01*
X143760952Y-27214285D01*
X143570476Y-27261904D01*
X143475238Y-27309523D01*
X143380000Y-27404761D01*
X143332380Y-27547619D01*
X143332380Y-27642857D01*
X143380000Y-27785714D01*
X143427619Y-27833333D01*
X143332380Y-28690476D02*
X143332380Y-28500000D01*
X143380000Y-28404761D01*
X143427619Y-28357142D01*
X143570476Y-28261904D01*
X143760952Y-28214285D01*
X144141904Y-28214285D01*
X144237142Y-28261904D01*
X144284761Y-28309523D01*
X144332380Y-28404761D01*
X144332380Y-28595238D01*
X144284761Y-28690476D01*
X144237142Y-28738095D01*
X144141904Y-28785714D01*
X143903809Y-28785714D01*
X143808571Y-28738095D01*
X143760952Y-28690476D01*
X143713333Y-28595238D01*
X143713333Y-28404761D01*
X143760952Y-28309523D01*
X143808571Y-28261904D01*
X143903809Y-28214285D01*
%TO.C,R2*%
X164266666Y-76797380D02*
X164600000Y-76321190D01*
X164838095Y-76797380D02*
X164838095Y-75797380D01*
X164457142Y-75797380D01*
X164361904Y-75845000D01*
X164314285Y-75892619D01*
X164266666Y-75987857D01*
X164266666Y-76130714D01*
X164314285Y-76225952D01*
X164361904Y-76273571D01*
X164457142Y-76321190D01*
X164838095Y-76321190D01*
X163885714Y-75892619D02*
X163838095Y-75845000D01*
X163742857Y-75797380D01*
X163504761Y-75797380D01*
X163409523Y-75845000D01*
X163361904Y-75892619D01*
X163314285Y-75987857D01*
X163314285Y-76083095D01*
X163361904Y-76225952D01*
X163933333Y-76797380D01*
X163314285Y-76797380D01*
%TO.C,R4*%
X176597380Y-85983333D02*
X176121190Y-85650000D01*
X176597380Y-85411904D02*
X175597380Y-85411904D01*
X175597380Y-85792857D01*
X175645000Y-85888095D01*
X175692619Y-85935714D01*
X175787857Y-85983333D01*
X175930714Y-85983333D01*
X176025952Y-85935714D01*
X176073571Y-85888095D01*
X176121190Y-85792857D01*
X176121190Y-85411904D01*
X175930714Y-86840476D02*
X176597380Y-86840476D01*
X175549761Y-86602380D02*
X176264047Y-86364285D01*
X176264047Y-86983333D01*
%TO.C,C7*%
X143666666Y-35077142D02*
X143714285Y-35124761D01*
X143857142Y-35172380D01*
X143952380Y-35172380D01*
X144095238Y-35124761D01*
X144190476Y-35029523D01*
X144238095Y-34934285D01*
X144285714Y-34743809D01*
X144285714Y-34600952D01*
X144238095Y-34410476D01*
X144190476Y-34315238D01*
X144095238Y-34220000D01*
X143952380Y-34172380D01*
X143857142Y-34172380D01*
X143714285Y-34220000D01*
X143666666Y-34267619D01*
X143333333Y-34172380D02*
X142666666Y-34172380D01*
X143095238Y-35172380D01*
%TO.C,R1*%
X163932380Y-74783333D02*
X163456190Y-74450000D01*
X163932380Y-74211904D02*
X162932380Y-74211904D01*
X162932380Y-74592857D01*
X162980000Y-74688095D01*
X163027619Y-74735714D01*
X163122857Y-74783333D01*
X163265714Y-74783333D01*
X163360952Y-74735714D01*
X163408571Y-74688095D01*
X163456190Y-74592857D01*
X163456190Y-74211904D01*
X163932380Y-75735714D02*
X163932380Y-75164285D01*
X163932380Y-75450000D02*
X162932380Y-75450000D01*
X163075238Y-75354761D01*
X163170476Y-75259523D01*
X163218095Y-75164285D01*
%TO.C,C2*%
X139937142Y-35233333D02*
X139984761Y-35185714D01*
X140032380Y-35042857D01*
X140032380Y-34947619D01*
X139984761Y-34804761D01*
X139889523Y-34709523D01*
X139794285Y-34661904D01*
X139603809Y-34614285D01*
X139460952Y-34614285D01*
X139270476Y-34661904D01*
X139175238Y-34709523D01*
X139080000Y-34804761D01*
X139032380Y-34947619D01*
X139032380Y-35042857D01*
X139080000Y-35185714D01*
X139127619Y-35233333D01*
X139127619Y-35614285D02*
X139080000Y-35661904D01*
X139032380Y-35757142D01*
X139032380Y-35995238D01*
X139080000Y-36090476D01*
X139127619Y-36138095D01*
X139222857Y-36185714D01*
X139318095Y-36185714D01*
X139460952Y-36138095D01*
X140032380Y-35566666D01*
X140032380Y-36185714D01*
%TO.C,R5*%
X164272380Y-74783333D02*
X163796190Y-74450000D01*
X164272380Y-74211904D02*
X163272380Y-74211904D01*
X163272380Y-74592857D01*
X163320000Y-74688095D01*
X163367619Y-74735714D01*
X163462857Y-74783333D01*
X163605714Y-74783333D01*
X163700952Y-74735714D01*
X163748571Y-74688095D01*
X163796190Y-74592857D01*
X163796190Y-74211904D01*
X163272380Y-75688095D02*
X163272380Y-75211904D01*
X163748571Y-75164285D01*
X163700952Y-75211904D01*
X163653333Y-75307142D01*
X163653333Y-75545238D01*
X163700952Y-75640476D01*
X163748571Y-75688095D01*
X163843809Y-75735714D01*
X164081904Y-75735714D01*
X164177142Y-75688095D01*
X164224761Y-75640476D01*
X164272380Y-75545238D01*
X164272380Y-75307142D01*
X164224761Y-75211904D01*
X164177142Y-75164285D01*
%TO.C,R6*%
X164216666Y-75857380D02*
X164550000Y-75381190D01*
X164788095Y-75857380D02*
X164788095Y-74857380D01*
X164407142Y-74857380D01*
X164311904Y-74905000D01*
X164264285Y-74952619D01*
X164216666Y-75047857D01*
X164216666Y-75190714D01*
X164264285Y-75285952D01*
X164311904Y-75333571D01*
X164407142Y-75381190D01*
X164788095Y-75381190D01*
X163359523Y-74857380D02*
X163550000Y-74857380D01*
X163645238Y-74905000D01*
X163692857Y-74952619D01*
X163788095Y-75095476D01*
X163835714Y-75285952D01*
X163835714Y-75666904D01*
X163788095Y-75762142D01*
X163740476Y-75809761D01*
X163645238Y-75857380D01*
X163454761Y-75857380D01*
X163359523Y-75809761D01*
X163311904Y-75762142D01*
X163264285Y-75666904D01*
X163264285Y-75428809D01*
X163311904Y-75333571D01*
X163359523Y-75285952D01*
X163454761Y-75238333D01*
X163645238Y-75238333D01*
X163740476Y-75285952D01*
X163788095Y-75333571D01*
X163835714Y-75428809D01*
%TO.C,Q2*%
X177882738Y-84647619D02*
X177977976Y-84600000D01*
X178073214Y-84504761D01*
X178216071Y-84361904D01*
X178311309Y-84314285D01*
X178406547Y-84314285D01*
X178358928Y-84552380D02*
X178454166Y-84504761D01*
X178549404Y-84409523D01*
X178597023Y-84219047D01*
X178597023Y-83885714D01*
X178549404Y-83695238D01*
X178454166Y-83600000D01*
X178358928Y-83552380D01*
X178168452Y-83552380D01*
X178073214Y-83600000D01*
X177977976Y-83695238D01*
X177930357Y-83885714D01*
X177930357Y-84219047D01*
X177977976Y-84409523D01*
X178073214Y-84504761D01*
X178168452Y-84552380D01*
X178358928Y-84552380D01*
X177549404Y-83647619D02*
X177501785Y-83600000D01*
X177406547Y-83552380D01*
X177168452Y-83552380D01*
X177073214Y-83600000D01*
X177025595Y-83647619D01*
X176977976Y-83742857D01*
X176977976Y-83838095D01*
X177025595Y-83980952D01*
X177597023Y-84552380D01*
X176977976Y-84552380D01*
%TO.C,S1*%
X148735107Y-39568725D02*
X148645005Y-39598759D01*
X148494835Y-39598759D01*
X148434767Y-39568725D01*
X148404733Y-39538691D01*
X148374699Y-39478623D01*
X148374699Y-39418555D01*
X148404733Y-39358487D01*
X148434767Y-39328453D01*
X148494835Y-39298419D01*
X148614971Y-39268385D01*
X148675039Y-39238351D01*
X148705073Y-39208317D01*
X148735107Y-39148249D01*
X148735107Y-39088181D01*
X148705073Y-39028113D01*
X148675039Y-38998079D01*
X148614971Y-38968045D01*
X148464801Y-38968045D01*
X148374699Y-38998079D01*
X147774019Y-39598759D02*
X148134427Y-39598759D01*
X147954223Y-39598759D02*
X147954223Y-38968045D01*
X148014291Y-39058147D01*
X148074359Y-39118215D01*
X148134427Y-39148249D01*
%TO.C,C4*%
X155137142Y-27883333D02*
X155184761Y-27835714D01*
X155232380Y-27692857D01*
X155232380Y-27597619D01*
X155184761Y-27454761D01*
X155089523Y-27359523D01*
X154994285Y-27311904D01*
X154803809Y-27264285D01*
X154660952Y-27264285D01*
X154470476Y-27311904D01*
X154375238Y-27359523D01*
X154280000Y-27454761D01*
X154232380Y-27597619D01*
X154232380Y-27692857D01*
X154280000Y-27835714D01*
X154327619Y-27883333D01*
X154565714Y-28740476D02*
X155232380Y-28740476D01*
X154184761Y-28502380D02*
X154899047Y-28264285D01*
X154899047Y-28883333D01*
D11*
%TO.C,C8*%
X145165000Y-28311252D02*
X145165000Y-27788748D01*
X146635000Y-28311252D02*
X146635000Y-27788748D01*
%TO.C,R9*%
X139988748Y-76835000D02*
X140511252Y-76835000D01*
X139988748Y-75365000D02*
X140511252Y-75365000D01*
D12*
%TO.C,U3*%
X146355000Y-69795000D02*
X150755000Y-69795000D01*
X146355000Y-77995000D02*
X150755000Y-77995000D01*
D13*
X144215000Y-77880000D02*
G75*
G03*
X144215000Y-77880000I-100000J0D01*
G01*
D11*
%TO.C,R3*%
X176116250Y-75588748D02*
X176116250Y-76111252D01*
X174646250Y-75588748D02*
X174646250Y-76111252D01*
%TO.C,R7*%
X138835000Y-28361252D02*
X138835000Y-27838748D01*
X137365000Y-28361252D02*
X137365000Y-27838748D01*
%TO.C,Q1*%
X170231250Y-77460000D02*
X169581250Y-77460000D01*
X170231250Y-74340000D02*
X171906250Y-74340000D01*
X170231250Y-74340000D02*
X169581250Y-74340000D01*
X170231250Y-77460000D02*
X170881250Y-77460000D01*
%TO.C,C1*%
X140035000Y-71038748D02*
X140035000Y-71561252D01*
X138565000Y-71038748D02*
X138565000Y-71561252D01*
D12*
%TO.C,S2*%
X173150000Y-58850000D02*
X177150000Y-58850000D01*
X172150000Y-62850000D02*
X172150000Y-60850000D01*
X178150000Y-62850000D02*
X178150000Y-60850000D01*
X173150000Y-64850000D02*
X177150000Y-64850000D01*
D13*
X170517000Y-64121100D02*
G75*
G03*
X170517000Y-64121100I-100000J0D01*
G01*
D12*
X176268030Y-61850000D02*
G75*
G03*
X176268030Y-61850000I-1118030J0D01*
G01*
D11*
%TO.C,C6*%
X141465000Y-28261252D02*
X141465000Y-27738748D01*
X142935000Y-28261252D02*
X142935000Y-27738748D01*
%TO.C,R2*%
X167390000Y-86788748D02*
X167390000Y-87311252D01*
X168860000Y-86788748D02*
X168860000Y-87311252D01*
%TO.C,R4*%
X177090000Y-85888748D02*
X177090000Y-86411252D01*
X178560000Y-85888748D02*
X178560000Y-86411252D01*
%TO.C,C7*%
X143761252Y-35665000D02*
X143238748Y-35665000D01*
X143761252Y-37135000D02*
X143238748Y-37135000D01*
%TO.C,R1*%
X161065000Y-75211252D02*
X161065000Y-74688748D01*
X162535000Y-75211252D02*
X162535000Y-74688748D01*
%TO.C,C2*%
X138635000Y-35661252D02*
X138635000Y-35138748D01*
X137165000Y-35661252D02*
X137165000Y-35138748D01*
%TO.C,R8*%
X167361252Y-60135000D02*
X166838748Y-60135000D01*
X167361252Y-58665000D02*
X166838748Y-58665000D01*
%TO.C,R5*%
X164765000Y-74688748D02*
X164765000Y-75211252D01*
X166235000Y-74688748D02*
X166235000Y-75211252D01*
%TO.C,R6*%
X164560000Y-87361252D02*
X164560000Y-86838748D01*
X163090000Y-87361252D02*
X163090000Y-86838748D01*
%TO.C,Q2*%
X172825000Y-84590000D02*
X172175000Y-84590000D01*
X172825000Y-87710000D02*
X172175000Y-87710000D01*
X172825000Y-84590000D02*
X174500000Y-84590000D01*
X172825000Y-87710000D02*
X173475000Y-87710000D01*
D12*
%TO.C,S1*%
X147900000Y-40100000D02*
X143900000Y-40100000D01*
X142900000Y-42100000D02*
X142900000Y-44100000D01*
X147900000Y-46100000D02*
X143900000Y-46100000D01*
X148900000Y-42100000D02*
X148900000Y-44100000D01*
X147018030Y-43100000D02*
G75*
G03*
X147018030Y-43100000I-1118030J0D01*
G01*
D13*
X150733000Y-40828900D02*
G75*
G03*
X150733000Y-40828900I-100000J0D01*
G01*
D11*
%TO.C,C4*%
X153835000Y-28311252D02*
X153835000Y-27788748D01*
X152365000Y-28311252D02*
X152365000Y-27788748D01*
%TD*%
M02*
