%TF.GenerationSoftware,KiCad,Pcbnew,(6.0.2)*%
%TF.CreationDate,2022-05-17T13:53:54+02:00*%
%TF.ProjectId,PCB_VuilBak,5043425f-5675-4696-9c42-616b2e6b6963,rev?*%
%TF.SameCoordinates,Original*%
%TF.FileFunction,Legend,Top*%
%TF.FilePolarity,Positive*%
%FSLAX46Y46*%
G04 Gerber Fmt 4.6, Leading zero omitted, Abs format (unit mm)*
G04 Created by KiCad (PCBNEW (6.0.2)) date 2022-05-17 13:53:54*
%MOMM*%
%LPD*%
G01*
G04 APERTURE LIST*
%ADD10C,0.200000*%
%ADD11C,0.300000*%
%ADD12C,0.150000*%
%ADD13C,0.120000*%
%ADD14C,0.127000*%
G04 APERTURE END LIST*
D10*
X119736666Y-58550000D02*
X119641428Y-58502380D01*
X119498571Y-58502380D01*
X119355714Y-58550000D01*
X119260476Y-58645238D01*
X119212857Y-58740476D01*
X119165238Y-58930952D01*
X119165238Y-59073809D01*
X119212857Y-59264285D01*
X119260476Y-59359523D01*
X119355714Y-59454761D01*
X119498571Y-59502380D01*
X119593809Y-59502380D01*
X119736666Y-59454761D01*
X119784285Y-59407142D01*
X119784285Y-59073809D01*
X119593809Y-59073809D01*
X120212857Y-59502380D02*
X120212857Y-58502380D01*
X120593809Y-58502380D01*
X120689047Y-58550000D01*
X120736666Y-58597619D01*
X120784285Y-58692857D01*
X120784285Y-58835714D01*
X120736666Y-58930952D01*
X120689047Y-58978571D01*
X120593809Y-59026190D01*
X120212857Y-59026190D01*
X121212857Y-59502380D02*
X121212857Y-58502380D01*
X121879523Y-58502380D02*
X122070000Y-58502380D01*
X122165238Y-58550000D01*
X122260476Y-58645238D01*
X122308095Y-58835714D01*
X122308095Y-59169047D01*
X122260476Y-59359523D01*
X122165238Y-59454761D01*
X122070000Y-59502380D01*
X121879523Y-59502380D01*
X121784285Y-59454761D01*
X121689047Y-59359523D01*
X121641428Y-59169047D01*
X121641428Y-58835714D01*
X121689047Y-58645238D01*
X121784285Y-58550000D01*
X121879523Y-58502380D01*
X123450952Y-58597619D02*
X123498571Y-58550000D01*
X123593809Y-58502380D01*
X123831904Y-58502380D01*
X123927142Y-58550000D01*
X123974761Y-58597619D01*
X124022380Y-58692857D01*
X124022380Y-58788095D01*
X123974761Y-58930952D01*
X123403333Y-59502380D01*
X124022380Y-59502380D01*
X124879523Y-58502380D02*
X124689047Y-58502380D01*
X124593809Y-58550000D01*
X124546190Y-58597619D01*
X124450952Y-58740476D01*
X124403333Y-58930952D01*
X124403333Y-59311904D01*
X124450952Y-59407142D01*
X124498571Y-59454761D01*
X124593809Y-59502380D01*
X124784285Y-59502380D01*
X124879523Y-59454761D01*
X124927142Y-59407142D01*
X124974761Y-59311904D01*
X124974761Y-59073809D01*
X124927142Y-58978571D01*
X124879523Y-58930952D01*
X124784285Y-58883333D01*
X124593809Y-58883333D01*
X124498571Y-58930952D01*
X124450952Y-58978571D01*
X124403333Y-59073809D01*
X211551666Y-62725000D02*
X211456428Y-62677380D01*
X211313571Y-62677380D01*
X211170714Y-62725000D01*
X211075476Y-62820238D01*
X211027857Y-62915476D01*
X210980238Y-63105952D01*
X210980238Y-63248809D01*
X211027857Y-63439285D01*
X211075476Y-63534523D01*
X211170714Y-63629761D01*
X211313571Y-63677380D01*
X211408809Y-63677380D01*
X211551666Y-63629761D01*
X211599285Y-63582142D01*
X211599285Y-63248809D01*
X211408809Y-63248809D01*
X212027857Y-63677380D02*
X212027857Y-62677380D01*
X212408809Y-62677380D01*
X212504047Y-62725000D01*
X212551666Y-62772619D01*
X212599285Y-62867857D01*
X212599285Y-63010714D01*
X212551666Y-63105952D01*
X212504047Y-63153571D01*
X212408809Y-63201190D01*
X212027857Y-63201190D01*
X213027857Y-63677380D02*
X213027857Y-62677380D01*
X213694523Y-62677380D02*
X213885000Y-62677380D01*
X213980238Y-62725000D01*
X214075476Y-62820238D01*
X214123095Y-63010714D01*
X214123095Y-63344047D01*
X214075476Y-63534523D01*
X213980238Y-63629761D01*
X213885000Y-63677380D01*
X213694523Y-63677380D01*
X213599285Y-63629761D01*
X213504047Y-63534523D01*
X213456428Y-63344047D01*
X213456428Y-63010714D01*
X213504047Y-62820238D01*
X213599285Y-62725000D01*
X213694523Y-62677380D01*
X215837380Y-63677380D02*
X215265952Y-63677380D01*
X215551666Y-63677380D02*
X215551666Y-62677380D01*
X215456428Y-62820238D01*
X215361190Y-62915476D01*
X215265952Y-62963095D01*
X216170714Y-62677380D02*
X216837380Y-62677380D01*
X216408809Y-63677380D01*
X199926666Y-115352380D02*
X199593333Y-114876190D01*
X199355238Y-115352380D02*
X199355238Y-114352380D01*
X199736190Y-114352380D01*
X199831428Y-114400000D01*
X199879047Y-114447619D01*
X199926666Y-114542857D01*
X199926666Y-114685714D01*
X199879047Y-114780952D01*
X199831428Y-114828571D01*
X199736190Y-114876190D01*
X199355238Y-114876190D01*
X200688571Y-114828571D02*
X200355238Y-114828571D01*
X200355238Y-115352380D02*
X200355238Y-114352380D01*
X200831428Y-114352380D01*
X201212380Y-115352380D02*
X201212380Y-114352380D01*
X201688571Y-115352380D02*
X201688571Y-114352380D01*
X201926666Y-114352380D01*
X202069523Y-114400000D01*
X202164761Y-114495238D01*
X202212380Y-114590476D01*
X202260000Y-114780952D01*
X202260000Y-114923809D01*
X202212380Y-115114285D01*
X202164761Y-115209523D01*
X202069523Y-115304761D01*
X201926666Y-115352380D01*
X201688571Y-115352380D01*
X202593333Y-114352380D02*
X203212380Y-114352380D01*
X202879047Y-114733333D01*
X203021904Y-114733333D01*
X203117142Y-114780952D01*
X203164761Y-114828571D01*
X203212380Y-114923809D01*
X203212380Y-115161904D01*
X203164761Y-115257142D01*
X203117142Y-115304761D01*
X203021904Y-115352380D01*
X202736190Y-115352380D01*
X202640952Y-115304761D01*
X202593333Y-115257142D01*
X188238095Y-112000000D02*
X188142857Y-111952380D01*
X188000000Y-111952380D01*
X187857142Y-112000000D01*
X187761904Y-112095238D01*
X187714285Y-112190476D01*
X187666666Y-112380952D01*
X187666666Y-112523809D01*
X187714285Y-112714285D01*
X187761904Y-112809523D01*
X187857142Y-112904761D01*
X188000000Y-112952380D01*
X188095238Y-112952380D01*
X188238095Y-112904761D01*
X188285714Y-112857142D01*
X188285714Y-112523809D01*
X188095238Y-112523809D01*
X188714285Y-112952380D02*
X188714285Y-111952380D01*
X189285714Y-112952380D01*
X189285714Y-111952380D01*
X189761904Y-112952380D02*
X189761904Y-111952380D01*
X190000000Y-111952380D01*
X190142857Y-112000000D01*
X190238095Y-112095238D01*
X190285714Y-112190476D01*
X190333333Y-112380952D01*
X190333333Y-112523809D01*
X190285714Y-112714285D01*
X190238095Y-112809523D01*
X190142857Y-112904761D01*
X190000000Y-112952380D01*
X189761904Y-112952380D01*
X209780952Y-25004761D02*
X209923809Y-25052380D01*
X210161904Y-25052380D01*
X210257142Y-25004761D01*
X210304761Y-24957142D01*
X210352380Y-24861904D01*
X210352380Y-24766666D01*
X210304761Y-24671428D01*
X210257142Y-24623809D01*
X210161904Y-24576190D01*
X209971428Y-24528571D01*
X209876190Y-24480952D01*
X209828571Y-24433333D01*
X209780952Y-24338095D01*
X209780952Y-24242857D01*
X209828571Y-24147619D01*
X209876190Y-24100000D01*
X209971428Y-24052380D01*
X210209523Y-24052380D01*
X210352380Y-24100000D01*
X210780952Y-25052380D02*
X210780952Y-24052380D01*
X211161904Y-24052380D01*
X211257142Y-24100000D01*
X211304761Y-24147619D01*
X211352380Y-24242857D01*
X211352380Y-24385714D01*
X211304761Y-24480952D01*
X211257142Y-24528571D01*
X211161904Y-24576190D01*
X210780952Y-24576190D01*
X211780952Y-24528571D02*
X212114285Y-24528571D01*
X212257142Y-25052380D02*
X211780952Y-25052380D01*
X211780952Y-24052380D01*
X212257142Y-24052380D01*
X212638095Y-24766666D02*
X213114285Y-24766666D01*
X212542857Y-25052380D02*
X212876190Y-24052380D01*
X213209523Y-25052380D01*
X213542857Y-25052380D02*
X213542857Y-24052380D01*
X214114285Y-25052380D02*
X213685714Y-24480952D01*
X214114285Y-24052380D02*
X213542857Y-24623809D01*
X214542857Y-24528571D02*
X214876190Y-24528571D01*
X215019047Y-25052380D02*
X214542857Y-25052380D01*
X214542857Y-24052380D01*
X215019047Y-24052380D01*
X216019047Y-25052380D02*
X215685714Y-24576190D01*
X215447619Y-25052380D02*
X215447619Y-24052380D01*
X215828571Y-24052380D01*
X215923809Y-24100000D01*
X215971428Y-24147619D01*
X216019047Y-24242857D01*
X216019047Y-24385714D01*
X215971428Y-24480952D01*
X215923809Y-24528571D01*
X215828571Y-24576190D01*
X215447619Y-24576190D01*
X213985714Y-82924761D02*
X214128571Y-82972380D01*
X214366666Y-82972380D01*
X214461904Y-82924761D01*
X214509523Y-82877142D01*
X214557142Y-82781904D01*
X214557142Y-82686666D01*
X214509523Y-82591428D01*
X214461904Y-82543809D01*
X214366666Y-82496190D01*
X214176190Y-82448571D01*
X214080952Y-82400952D01*
X214033333Y-82353333D01*
X213985714Y-82258095D01*
X213985714Y-82162857D01*
X214033333Y-82067619D01*
X214080952Y-82020000D01*
X214176190Y-81972380D01*
X214414285Y-81972380D01*
X214557142Y-82020000D01*
X214985714Y-82972380D02*
X214985714Y-81972380D01*
X215223809Y-81972380D01*
X215366666Y-82020000D01*
X215461904Y-82115238D01*
X215509523Y-82210476D01*
X215557142Y-82400952D01*
X215557142Y-82543809D01*
X215509523Y-82734285D01*
X215461904Y-82829523D01*
X215366666Y-82924761D01*
X215223809Y-82972380D01*
X214985714Y-82972380D01*
X215938095Y-82686666D02*
X216414285Y-82686666D01*
X215842857Y-82972380D02*
X216176190Y-81972380D01*
X216509523Y-82972380D01*
X180969523Y-112904761D02*
X181112380Y-112952380D01*
X181350476Y-112952380D01*
X181445714Y-112904761D01*
X181493333Y-112857142D01*
X181540952Y-112761904D01*
X181540952Y-112666666D01*
X181493333Y-112571428D01*
X181445714Y-112523809D01*
X181350476Y-112476190D01*
X181160000Y-112428571D01*
X181064761Y-112380952D01*
X181017142Y-112333333D01*
X180969523Y-112238095D01*
X180969523Y-112142857D01*
X181017142Y-112047619D01*
X181064761Y-112000000D01*
X181160000Y-111952380D01*
X181398095Y-111952380D01*
X181540952Y-112000000D01*
X182540952Y-112857142D02*
X182493333Y-112904761D01*
X182350476Y-112952380D01*
X182255238Y-112952380D01*
X182112380Y-112904761D01*
X182017142Y-112809523D01*
X181969523Y-112714285D01*
X181921904Y-112523809D01*
X181921904Y-112380952D01*
X181969523Y-112190476D01*
X182017142Y-112095238D01*
X182112380Y-112000000D01*
X182255238Y-111952380D01*
X182350476Y-111952380D01*
X182493333Y-112000000D01*
X182540952Y-112047619D01*
X183445714Y-112952380D02*
X182969523Y-112952380D01*
X182969523Y-111952380D01*
X211204761Y-37437380D02*
X211204761Y-38246904D01*
X211252380Y-38342142D01*
X211300000Y-38389761D01*
X211395238Y-38437380D01*
X211585714Y-38437380D01*
X211680952Y-38389761D01*
X211728571Y-38342142D01*
X211776190Y-38246904D01*
X211776190Y-37437380D01*
X212204761Y-38151666D02*
X212680952Y-38151666D01*
X212109523Y-38437380D02*
X212442857Y-37437380D01*
X212776190Y-38437380D01*
X213680952Y-38437380D02*
X213347619Y-37961190D01*
X213109523Y-38437380D02*
X213109523Y-37437380D01*
X213490476Y-37437380D01*
X213585714Y-37485000D01*
X213633333Y-37532619D01*
X213680952Y-37627857D01*
X213680952Y-37770714D01*
X213633333Y-37865952D01*
X213585714Y-37913571D01*
X213490476Y-37961190D01*
X213109523Y-37961190D01*
X213966666Y-37437380D02*
X214538095Y-37437380D01*
X214252380Y-38437380D02*
X214252380Y-37437380D01*
X120532619Y-48225000D02*
X120437380Y-48177380D01*
X120294523Y-48177380D01*
X120151666Y-48225000D01*
X120056428Y-48320238D01*
X120008809Y-48415476D01*
X119961190Y-48605952D01*
X119961190Y-48748809D01*
X120008809Y-48939285D01*
X120056428Y-49034523D01*
X120151666Y-49129761D01*
X120294523Y-49177380D01*
X120389761Y-49177380D01*
X120532619Y-49129761D01*
X120580238Y-49082142D01*
X120580238Y-48748809D01*
X120389761Y-48748809D01*
X121008809Y-49177380D02*
X121008809Y-48177380D01*
X121389761Y-48177380D01*
X121485000Y-48225000D01*
X121532619Y-48272619D01*
X121580238Y-48367857D01*
X121580238Y-48510714D01*
X121532619Y-48605952D01*
X121485000Y-48653571D01*
X121389761Y-48701190D01*
X121008809Y-48701190D01*
X122008809Y-49177380D02*
X122008809Y-48177380D01*
X122675476Y-48177380D02*
X122865952Y-48177380D01*
X122961190Y-48225000D01*
X123056428Y-48320238D01*
X123104047Y-48510714D01*
X123104047Y-48844047D01*
X123056428Y-49034523D01*
X122961190Y-49129761D01*
X122865952Y-49177380D01*
X122675476Y-49177380D01*
X122580238Y-49129761D01*
X122485000Y-49034523D01*
X122437380Y-48844047D01*
X122437380Y-48510714D01*
X122485000Y-48320238D01*
X122580238Y-48225000D01*
X122675476Y-48177380D01*
X123485000Y-48272619D02*
X123532619Y-48225000D01*
X123627857Y-48177380D01*
X123865952Y-48177380D01*
X123961190Y-48225000D01*
X124008809Y-48272619D01*
X124056428Y-48367857D01*
X124056428Y-48463095D01*
X124008809Y-48605952D01*
X123437380Y-49177380D01*
X124056428Y-49177380D01*
X124961190Y-48177380D02*
X124485000Y-48177380D01*
X124437380Y-48653571D01*
X124485000Y-48605952D01*
X124580238Y-48558333D01*
X124818333Y-48558333D01*
X124913571Y-48605952D01*
X124961190Y-48653571D01*
X125008809Y-48748809D01*
X125008809Y-48986904D01*
X124961190Y-49082142D01*
X124913571Y-49129761D01*
X124818333Y-49177380D01*
X124580238Y-49177380D01*
X124485000Y-49129761D01*
X124437380Y-49082142D01*
X212223095Y-40385000D02*
X212127857Y-40337380D01*
X211985000Y-40337380D01*
X211842142Y-40385000D01*
X211746904Y-40480238D01*
X211699285Y-40575476D01*
X211651666Y-40765952D01*
X211651666Y-40908809D01*
X211699285Y-41099285D01*
X211746904Y-41194523D01*
X211842142Y-41289761D01*
X211985000Y-41337380D01*
X212080238Y-41337380D01*
X212223095Y-41289761D01*
X212270714Y-41242142D01*
X212270714Y-40908809D01*
X212080238Y-40908809D01*
X212699285Y-41337380D02*
X212699285Y-40337380D01*
X213270714Y-41337380D01*
X213270714Y-40337380D01*
X213746904Y-41337380D02*
X213746904Y-40337380D01*
X213985000Y-40337380D01*
X214127857Y-40385000D01*
X214223095Y-40480238D01*
X214270714Y-40575476D01*
X214318333Y-40765952D01*
X214318333Y-40908809D01*
X214270714Y-41099285D01*
X214223095Y-41194523D01*
X214127857Y-41289761D01*
X213985000Y-41337380D01*
X213746904Y-41337380D01*
X121238095Y-79300000D02*
X121142857Y-79252380D01*
X121000000Y-79252380D01*
X120857142Y-79300000D01*
X120761904Y-79395238D01*
X120714285Y-79490476D01*
X120666666Y-79680952D01*
X120666666Y-79823809D01*
X120714285Y-80014285D01*
X120761904Y-80109523D01*
X120857142Y-80204761D01*
X121000000Y-80252380D01*
X121095238Y-80252380D01*
X121238095Y-80204761D01*
X121285714Y-80157142D01*
X121285714Y-79823809D01*
X121095238Y-79823809D01*
X121714285Y-80252380D02*
X121714285Y-79252380D01*
X122285714Y-80252380D01*
X122285714Y-79252380D01*
X122761904Y-80252380D02*
X122761904Y-79252380D01*
X123000000Y-79252380D01*
X123142857Y-79300000D01*
X123238095Y-79395238D01*
X123285714Y-79490476D01*
X123333333Y-79680952D01*
X123333333Y-79823809D01*
X123285714Y-80014285D01*
X123238095Y-80109523D01*
X123142857Y-80204761D01*
X123000000Y-80252380D01*
X122761904Y-80252380D01*
X134003095Y-111925000D02*
X133907857Y-111877380D01*
X133765000Y-111877380D01*
X133622142Y-111925000D01*
X133526904Y-112020238D01*
X133479285Y-112115476D01*
X133431666Y-112305952D01*
X133431666Y-112448809D01*
X133479285Y-112639285D01*
X133526904Y-112734523D01*
X133622142Y-112829761D01*
X133765000Y-112877380D01*
X133860238Y-112877380D01*
X134003095Y-112829761D01*
X134050714Y-112782142D01*
X134050714Y-112448809D01*
X133860238Y-112448809D01*
X134479285Y-112877380D02*
X134479285Y-111877380D01*
X135050714Y-112877380D01*
X135050714Y-111877380D01*
X135526904Y-112877380D02*
X135526904Y-111877380D01*
X135765000Y-111877380D01*
X135907857Y-111925000D01*
X136003095Y-112020238D01*
X136050714Y-112115476D01*
X136098333Y-112305952D01*
X136098333Y-112448809D01*
X136050714Y-112639285D01*
X136003095Y-112734523D01*
X135907857Y-112829761D01*
X135765000Y-112877380D01*
X135526904Y-112877380D01*
X214409523Y-80424761D02*
X214552380Y-80472380D01*
X214790476Y-80472380D01*
X214885714Y-80424761D01*
X214933333Y-80377142D01*
X214980952Y-80281904D01*
X214980952Y-80186666D01*
X214933333Y-80091428D01*
X214885714Y-80043809D01*
X214790476Y-79996190D01*
X214600000Y-79948571D01*
X214504761Y-79900952D01*
X214457142Y-79853333D01*
X214409523Y-79758095D01*
X214409523Y-79662857D01*
X214457142Y-79567619D01*
X214504761Y-79520000D01*
X214600000Y-79472380D01*
X214838095Y-79472380D01*
X214980952Y-79520000D01*
X215980952Y-80377142D02*
X215933333Y-80424761D01*
X215790476Y-80472380D01*
X215695238Y-80472380D01*
X215552380Y-80424761D01*
X215457142Y-80329523D01*
X215409523Y-80234285D01*
X215361904Y-80043809D01*
X215361904Y-79900952D01*
X215409523Y-79710476D01*
X215457142Y-79615238D01*
X215552380Y-79520000D01*
X215695238Y-79472380D01*
X215790476Y-79472380D01*
X215933333Y-79520000D01*
X215980952Y-79567619D01*
X216885714Y-80472380D02*
X216409523Y-80472380D01*
X216409523Y-79472380D01*
X212123095Y-42837380D02*
X212694523Y-42837380D01*
X212408809Y-43837380D02*
X212408809Y-42837380D01*
X212932619Y-42837380D02*
X213599285Y-43837380D01*
X213599285Y-42837380D02*
X212932619Y-43837380D01*
X198920714Y-113004761D02*
X199063571Y-113052380D01*
X199301666Y-113052380D01*
X199396904Y-113004761D01*
X199444523Y-112957142D01*
X199492142Y-112861904D01*
X199492142Y-112766666D01*
X199444523Y-112671428D01*
X199396904Y-112623809D01*
X199301666Y-112576190D01*
X199111190Y-112528571D01*
X199015952Y-112480952D01*
X198968333Y-112433333D01*
X198920714Y-112338095D01*
X198920714Y-112242857D01*
X198968333Y-112147619D01*
X199015952Y-112100000D01*
X199111190Y-112052380D01*
X199349285Y-112052380D01*
X199492142Y-112100000D01*
X199920714Y-113052380D02*
X199920714Y-112052380D01*
X200158809Y-112052380D01*
X200301666Y-112100000D01*
X200396904Y-112195238D01*
X200444523Y-112290476D01*
X200492142Y-112480952D01*
X200492142Y-112623809D01*
X200444523Y-112814285D01*
X200396904Y-112909523D01*
X200301666Y-113004761D01*
X200158809Y-113052380D01*
X199920714Y-113052380D01*
X200873095Y-112766666D02*
X201349285Y-112766666D01*
X200777857Y-113052380D02*
X201111190Y-112052380D01*
X201444523Y-113052380D01*
X212027857Y-60225000D02*
X211932619Y-60177380D01*
X211789761Y-60177380D01*
X211646904Y-60225000D01*
X211551666Y-60320238D01*
X211504047Y-60415476D01*
X211456428Y-60605952D01*
X211456428Y-60748809D01*
X211504047Y-60939285D01*
X211551666Y-61034523D01*
X211646904Y-61129761D01*
X211789761Y-61177380D01*
X211885000Y-61177380D01*
X212027857Y-61129761D01*
X212075476Y-61082142D01*
X212075476Y-60748809D01*
X211885000Y-60748809D01*
X212504047Y-61177380D02*
X212504047Y-60177380D01*
X212885000Y-60177380D01*
X212980238Y-60225000D01*
X213027857Y-60272619D01*
X213075476Y-60367857D01*
X213075476Y-60510714D01*
X213027857Y-60605952D01*
X212980238Y-60653571D01*
X212885000Y-60701190D01*
X212504047Y-60701190D01*
X213504047Y-61177380D02*
X213504047Y-60177380D01*
X214170714Y-60177380D02*
X214361190Y-60177380D01*
X214456428Y-60225000D01*
X214551666Y-60320238D01*
X214599285Y-60510714D01*
X214599285Y-60844047D01*
X214551666Y-61034523D01*
X214456428Y-61129761D01*
X214361190Y-61177380D01*
X214170714Y-61177380D01*
X214075476Y-61129761D01*
X213980238Y-61034523D01*
X213932619Y-60844047D01*
X213932619Y-60510714D01*
X213980238Y-60320238D01*
X214075476Y-60225000D01*
X214170714Y-60177380D01*
X216265952Y-60177380D02*
X215789761Y-60177380D01*
X215742142Y-60653571D01*
X215789761Y-60605952D01*
X215885000Y-60558333D01*
X216123095Y-60558333D01*
X216218333Y-60605952D01*
X216265952Y-60653571D01*
X216313571Y-60748809D01*
X216313571Y-60986904D01*
X216265952Y-61082142D01*
X216218333Y-61129761D01*
X216123095Y-61177380D01*
X215885000Y-61177380D01*
X215789761Y-61129761D01*
X215742142Y-61082142D01*
X168336190Y-114552380D02*
X168336190Y-113552380D01*
X169383809Y-114552380D02*
X169050476Y-114076190D01*
X168812380Y-114552380D02*
X168812380Y-113552380D01*
X169193333Y-113552380D01*
X169288571Y-113600000D01*
X169336190Y-113647619D01*
X169383809Y-113742857D01*
X169383809Y-113885714D01*
X169336190Y-113980952D01*
X169288571Y-114028571D01*
X169193333Y-114076190D01*
X168812380Y-114076190D01*
X170479047Y-114647619D02*
X170383809Y-114600000D01*
X170288571Y-114504761D01*
X170145714Y-114361904D01*
X170050476Y-114314285D01*
X169955238Y-114314285D01*
X170002857Y-114552380D02*
X169907619Y-114504761D01*
X169812380Y-114409523D01*
X169764761Y-114219047D01*
X169764761Y-113885714D01*
X169812380Y-113695238D01*
X169907619Y-113600000D01*
X170002857Y-113552380D01*
X170193333Y-113552380D01*
X170288571Y-113600000D01*
X170383809Y-113695238D01*
X170431428Y-113885714D01*
X170431428Y-114219047D01*
X170383809Y-114409523D01*
X170288571Y-114504761D01*
X170193333Y-114552380D01*
X170002857Y-114552380D01*
X211551666Y-67825000D02*
X211456428Y-67777380D01*
X211313571Y-67777380D01*
X211170714Y-67825000D01*
X211075476Y-67920238D01*
X211027857Y-68015476D01*
X210980238Y-68205952D01*
X210980238Y-68348809D01*
X211027857Y-68539285D01*
X211075476Y-68634523D01*
X211170714Y-68729761D01*
X211313571Y-68777380D01*
X211408809Y-68777380D01*
X211551666Y-68729761D01*
X211599285Y-68682142D01*
X211599285Y-68348809D01*
X211408809Y-68348809D01*
X212027857Y-68777380D02*
X212027857Y-67777380D01*
X212408809Y-67777380D01*
X212504047Y-67825000D01*
X212551666Y-67872619D01*
X212599285Y-67967857D01*
X212599285Y-68110714D01*
X212551666Y-68205952D01*
X212504047Y-68253571D01*
X212408809Y-68301190D01*
X212027857Y-68301190D01*
X213027857Y-68777380D02*
X213027857Y-67777380D01*
X213694523Y-67777380D02*
X213885000Y-67777380D01*
X213980238Y-67825000D01*
X214075476Y-67920238D01*
X214123095Y-68110714D01*
X214123095Y-68444047D01*
X214075476Y-68634523D01*
X213980238Y-68729761D01*
X213885000Y-68777380D01*
X213694523Y-68777380D01*
X213599285Y-68729761D01*
X213504047Y-68634523D01*
X213456428Y-68444047D01*
X213456428Y-68110714D01*
X213504047Y-67920238D01*
X213599285Y-67825000D01*
X213694523Y-67777380D01*
X215504047Y-67777380D02*
X215599285Y-67777380D01*
X215694523Y-67825000D01*
X215742142Y-67872619D01*
X215789761Y-67967857D01*
X215837380Y-68158333D01*
X215837380Y-68396428D01*
X215789761Y-68586904D01*
X215742142Y-68682142D01*
X215694523Y-68729761D01*
X215599285Y-68777380D01*
X215504047Y-68777380D01*
X215408809Y-68729761D01*
X215361190Y-68682142D01*
X215313571Y-68586904D01*
X215265952Y-68396428D01*
X215265952Y-68158333D01*
X215313571Y-67967857D01*
X215361190Y-67872619D01*
X215408809Y-67825000D01*
X215504047Y-67777380D01*
X216694523Y-68110714D02*
X216694523Y-68777380D01*
X216456428Y-67729761D02*
X216218333Y-68444047D01*
X216837380Y-68444047D01*
X132426666Y-114600000D02*
X132331428Y-114552380D01*
X132188571Y-114552380D01*
X132045714Y-114600000D01*
X131950476Y-114695238D01*
X131902857Y-114790476D01*
X131855238Y-114980952D01*
X131855238Y-115123809D01*
X131902857Y-115314285D01*
X131950476Y-115409523D01*
X132045714Y-115504761D01*
X132188571Y-115552380D01*
X132283809Y-115552380D01*
X132426666Y-115504761D01*
X132474285Y-115457142D01*
X132474285Y-115123809D01*
X132283809Y-115123809D01*
X132902857Y-115552380D02*
X132902857Y-114552380D01*
X133283809Y-114552380D01*
X133379047Y-114600000D01*
X133426666Y-114647619D01*
X133474285Y-114742857D01*
X133474285Y-114885714D01*
X133426666Y-114980952D01*
X133379047Y-115028571D01*
X133283809Y-115076190D01*
X132902857Y-115076190D01*
X133902857Y-115552380D02*
X133902857Y-114552380D01*
X134569523Y-114552380D02*
X134760000Y-114552380D01*
X134855238Y-114600000D01*
X134950476Y-114695238D01*
X134998095Y-114885714D01*
X134998095Y-115219047D01*
X134950476Y-115409523D01*
X134855238Y-115504761D01*
X134760000Y-115552380D01*
X134569523Y-115552380D01*
X134474285Y-115504761D01*
X134379047Y-115409523D01*
X134331428Y-115219047D01*
X134331428Y-114885714D01*
X134379047Y-114695238D01*
X134474285Y-114600000D01*
X134569523Y-114552380D01*
X136712380Y-115552380D02*
X136140952Y-115552380D01*
X136426666Y-115552380D02*
X136426666Y-114552380D01*
X136331428Y-114695238D01*
X136236190Y-114790476D01*
X136140952Y-114838095D01*
X137617142Y-114552380D02*
X137140952Y-114552380D01*
X137093333Y-115028571D01*
X137140952Y-114980952D01*
X137236190Y-114933333D01*
X137474285Y-114933333D01*
X137569523Y-114980952D01*
X137617142Y-115028571D01*
X137664761Y-115123809D01*
X137664761Y-115361904D01*
X137617142Y-115457142D01*
X137569523Y-115504761D01*
X137474285Y-115552380D01*
X137236190Y-115552380D01*
X137140952Y-115504761D01*
X137093333Y-115457142D01*
X214738095Y-76620000D02*
X214642857Y-76572380D01*
X214500000Y-76572380D01*
X214357142Y-76620000D01*
X214261904Y-76715238D01*
X214214285Y-76810476D01*
X214166666Y-77000952D01*
X214166666Y-77143809D01*
X214214285Y-77334285D01*
X214261904Y-77429523D01*
X214357142Y-77524761D01*
X214500000Y-77572380D01*
X214595238Y-77572380D01*
X214738095Y-77524761D01*
X214785714Y-77477142D01*
X214785714Y-77143809D01*
X214595238Y-77143809D01*
X215214285Y-77572380D02*
X215214285Y-76572380D01*
X215785714Y-77572380D01*
X215785714Y-76572380D01*
X216261904Y-77572380D02*
X216261904Y-76572380D01*
X216500000Y-76572380D01*
X216642857Y-76620000D01*
X216738095Y-76715238D01*
X216785714Y-76810476D01*
X216833333Y-77000952D01*
X216833333Y-77143809D01*
X216785714Y-77334285D01*
X216738095Y-77429523D01*
X216642857Y-77524761D01*
X216500000Y-77572380D01*
X216261904Y-77572380D01*
X212594523Y-28077380D02*
X212118333Y-28077380D01*
X212070714Y-28553571D01*
X212118333Y-28505952D01*
X212213571Y-28458333D01*
X212451666Y-28458333D01*
X212546904Y-28505952D01*
X212594523Y-28553571D01*
X212642142Y-28648809D01*
X212642142Y-28886904D01*
X212594523Y-28982142D01*
X212546904Y-29029761D01*
X212451666Y-29077380D01*
X212213571Y-29077380D01*
X212118333Y-29029761D01*
X212070714Y-28982142D01*
X212927857Y-28077380D02*
X213261190Y-29077380D01*
X213594523Y-28077380D01*
X120633333Y-27852380D02*
X120633333Y-26852380D01*
X121204761Y-27852380D02*
X120776190Y-27280952D01*
X121204761Y-26852380D02*
X120633333Y-27423809D01*
X121633333Y-27852380D02*
X121633333Y-26852380D01*
X122204761Y-27852380D01*
X122204761Y-26852380D01*
X122871428Y-26852380D02*
X123061904Y-26852380D01*
X123157142Y-26900000D01*
X123252380Y-26995238D01*
X123300000Y-27185714D01*
X123300000Y-27519047D01*
X123252380Y-27709523D01*
X123157142Y-27804761D01*
X123061904Y-27852380D01*
X122871428Y-27852380D01*
X122776190Y-27804761D01*
X122680952Y-27709523D01*
X122633333Y-27519047D01*
X122633333Y-27185714D01*
X122680952Y-26995238D01*
X122776190Y-26900000D01*
X122871428Y-26852380D01*
X123728571Y-27852380D02*
X123728571Y-26852380D01*
X124109523Y-26852380D01*
X124204761Y-26900000D01*
X124252380Y-26947619D01*
X124300000Y-27042857D01*
X124300000Y-27185714D01*
X124252380Y-27280952D01*
X124204761Y-27328571D01*
X124109523Y-27376190D01*
X123728571Y-27376190D01*
X126014285Y-27852380D02*
X125442857Y-27852380D01*
X125728571Y-27852380D02*
X125728571Y-26852380D01*
X125633333Y-26995238D01*
X125538095Y-27090476D01*
X125442857Y-27138095D01*
X121008809Y-45677380D02*
X121627857Y-45677380D01*
X121294523Y-46058333D01*
X121437380Y-46058333D01*
X121532619Y-46105952D01*
X121580238Y-46153571D01*
X121627857Y-46248809D01*
X121627857Y-46486904D01*
X121580238Y-46582142D01*
X121532619Y-46629761D01*
X121437380Y-46677380D01*
X121151666Y-46677380D01*
X121056428Y-46629761D01*
X121008809Y-46582142D01*
X122056428Y-46582142D02*
X122104047Y-46629761D01*
X122056428Y-46677380D01*
X122008809Y-46629761D01*
X122056428Y-46582142D01*
X122056428Y-46677380D01*
X122437380Y-45677380D02*
X123056428Y-45677380D01*
X122723095Y-46058333D01*
X122865952Y-46058333D01*
X122961190Y-46105952D01*
X123008809Y-46153571D01*
X123056428Y-46248809D01*
X123056428Y-46486904D01*
X123008809Y-46582142D01*
X122961190Y-46629761D01*
X122865952Y-46677380D01*
X122580238Y-46677380D01*
X122485000Y-46629761D01*
X122437380Y-46582142D01*
X123342142Y-45677380D02*
X123675476Y-46677380D01*
X124008809Y-45677380D01*
X118951666Y-69177380D02*
X118475476Y-69177380D01*
X118475476Y-68177380D01*
X119475476Y-68177380D02*
X119665952Y-68177380D01*
X119761190Y-68225000D01*
X119856428Y-68320238D01*
X119904047Y-68510714D01*
X119904047Y-68844047D01*
X119856428Y-69034523D01*
X119761190Y-69129761D01*
X119665952Y-69177380D01*
X119475476Y-69177380D01*
X119380238Y-69129761D01*
X119285000Y-69034523D01*
X119237380Y-68844047D01*
X119237380Y-68510714D01*
X119285000Y-68320238D01*
X119380238Y-68225000D01*
X119475476Y-68177380D01*
X120285000Y-68891666D02*
X120761190Y-68891666D01*
X120189761Y-69177380D02*
X120523095Y-68177380D01*
X120856428Y-69177380D01*
X121189761Y-69177380D02*
X121189761Y-68177380D01*
X121427857Y-68177380D01*
X121570714Y-68225000D01*
X121665952Y-68320238D01*
X121713571Y-68415476D01*
X121761190Y-68605952D01*
X121761190Y-68748809D01*
X121713571Y-68939285D01*
X121665952Y-69034523D01*
X121570714Y-69129761D01*
X121427857Y-69177380D01*
X121189761Y-69177380D01*
X122904047Y-69129761D02*
X123046904Y-69177380D01*
X123285000Y-69177380D01*
X123380238Y-69129761D01*
X123427857Y-69082142D01*
X123475476Y-68986904D01*
X123475476Y-68891666D01*
X123427857Y-68796428D01*
X123380238Y-68748809D01*
X123285000Y-68701190D01*
X123094523Y-68653571D01*
X122999285Y-68605952D01*
X122951666Y-68558333D01*
X122904047Y-68463095D01*
X122904047Y-68367857D01*
X122951666Y-68272619D01*
X122999285Y-68225000D01*
X123094523Y-68177380D01*
X123332619Y-68177380D01*
X123475476Y-68225000D01*
X123904047Y-68653571D02*
X124237380Y-68653571D01*
X124380238Y-69177380D02*
X123904047Y-69177380D01*
X123904047Y-68177380D01*
X124380238Y-68177380D01*
X124808809Y-69177380D02*
X124808809Y-68177380D01*
X125380238Y-69177380D01*
X125380238Y-68177380D01*
X125808809Y-69129761D02*
X125951666Y-69177380D01*
X126189761Y-69177380D01*
X126285000Y-69129761D01*
X126332619Y-69082142D01*
X126380238Y-68986904D01*
X126380238Y-68891666D01*
X126332619Y-68796428D01*
X126285000Y-68748809D01*
X126189761Y-68701190D01*
X125999285Y-68653571D01*
X125904047Y-68605952D01*
X125856428Y-68558333D01*
X125808809Y-68463095D01*
X125808809Y-68367857D01*
X125856428Y-68272619D01*
X125904047Y-68225000D01*
X125999285Y-68177380D01*
X126237380Y-68177380D01*
X126380238Y-68225000D01*
X126999285Y-68177380D02*
X127189761Y-68177380D01*
X127285000Y-68225000D01*
X127380238Y-68320238D01*
X127427857Y-68510714D01*
X127427857Y-68844047D01*
X127380238Y-69034523D01*
X127285000Y-69129761D01*
X127189761Y-69177380D01*
X126999285Y-69177380D01*
X126904047Y-69129761D01*
X126808809Y-69034523D01*
X126761190Y-68844047D01*
X126761190Y-68510714D01*
X126808809Y-68320238D01*
X126904047Y-68225000D01*
X126999285Y-68177380D01*
X128427857Y-69177380D02*
X128094523Y-68701190D01*
X127856428Y-69177380D02*
X127856428Y-68177380D01*
X128237380Y-68177380D01*
X128332619Y-68225000D01*
X128380238Y-68272619D01*
X128427857Y-68367857D01*
X128427857Y-68510714D01*
X128380238Y-68605952D01*
X128332619Y-68653571D01*
X128237380Y-68701190D01*
X127856428Y-68701190D01*
X129570714Y-68272619D02*
X129618333Y-68225000D01*
X129713571Y-68177380D01*
X129951666Y-68177380D01*
X130046904Y-68225000D01*
X130094523Y-68272619D01*
X130142142Y-68367857D01*
X130142142Y-68463095D01*
X130094523Y-68605952D01*
X129523095Y-69177380D01*
X130142142Y-69177380D01*
X211213571Y-53177380D02*
X211213571Y-52177380D01*
X211785000Y-53177380D02*
X211356428Y-52605952D01*
X211785000Y-52177380D02*
X211213571Y-52748809D01*
X212213571Y-52653571D02*
X212546904Y-52653571D01*
X212689761Y-53177380D02*
X212213571Y-53177380D01*
X212213571Y-52177380D01*
X212689761Y-52177380D01*
X213308809Y-52701190D02*
X213308809Y-53177380D01*
X212975476Y-52177380D02*
X213308809Y-52701190D01*
X213642142Y-52177380D01*
X213975476Y-53177380D02*
X213975476Y-52177380D01*
X214356428Y-52177380D01*
X214451666Y-52225000D01*
X214499285Y-52272619D01*
X214546904Y-52367857D01*
X214546904Y-52510714D01*
X214499285Y-52605952D01*
X214451666Y-52653571D01*
X214356428Y-52701190D01*
X213975476Y-52701190D01*
X214927857Y-52891666D02*
X215404047Y-52891666D01*
X214832619Y-53177380D02*
X215165952Y-52177380D01*
X215499285Y-53177380D01*
X215832619Y-53177380D02*
X215832619Y-52177380D01*
X216070714Y-52177380D01*
X216213571Y-52225000D01*
X216308809Y-52320238D01*
X216356428Y-52415476D01*
X216404047Y-52605952D01*
X216404047Y-52748809D01*
X216356428Y-52939285D01*
X216308809Y-53034523D01*
X216213571Y-53129761D01*
X216070714Y-53177380D01*
X215832619Y-53177380D01*
X126026666Y-118252380D02*
X125550476Y-118252380D01*
X125550476Y-117252380D01*
X126550476Y-117252380D02*
X126740952Y-117252380D01*
X126836190Y-117300000D01*
X126931428Y-117395238D01*
X126979047Y-117585714D01*
X126979047Y-117919047D01*
X126931428Y-118109523D01*
X126836190Y-118204761D01*
X126740952Y-118252380D01*
X126550476Y-118252380D01*
X126455238Y-118204761D01*
X126360000Y-118109523D01*
X126312380Y-117919047D01*
X126312380Y-117585714D01*
X126360000Y-117395238D01*
X126455238Y-117300000D01*
X126550476Y-117252380D01*
X127360000Y-117966666D02*
X127836190Y-117966666D01*
X127264761Y-118252380D02*
X127598095Y-117252380D01*
X127931428Y-118252380D01*
X128264761Y-118252380D02*
X128264761Y-117252380D01*
X128502857Y-117252380D01*
X128645714Y-117300000D01*
X128740952Y-117395238D01*
X128788571Y-117490476D01*
X128836190Y-117680952D01*
X128836190Y-117823809D01*
X128788571Y-118014285D01*
X128740952Y-118109523D01*
X128645714Y-118204761D01*
X128502857Y-118252380D01*
X128264761Y-118252380D01*
X129979047Y-118204761D02*
X130121904Y-118252380D01*
X130360000Y-118252380D01*
X130455238Y-118204761D01*
X130502857Y-118157142D01*
X130550476Y-118061904D01*
X130550476Y-117966666D01*
X130502857Y-117871428D01*
X130455238Y-117823809D01*
X130360000Y-117776190D01*
X130169523Y-117728571D01*
X130074285Y-117680952D01*
X130026666Y-117633333D01*
X129979047Y-117538095D01*
X129979047Y-117442857D01*
X130026666Y-117347619D01*
X130074285Y-117300000D01*
X130169523Y-117252380D01*
X130407619Y-117252380D01*
X130550476Y-117300000D01*
X130979047Y-117728571D02*
X131312380Y-117728571D01*
X131455238Y-118252380D02*
X130979047Y-118252380D01*
X130979047Y-117252380D01*
X131455238Y-117252380D01*
X131883809Y-118252380D02*
X131883809Y-117252380D01*
X132455238Y-118252380D01*
X132455238Y-117252380D01*
X132883809Y-118204761D02*
X133026666Y-118252380D01*
X133264761Y-118252380D01*
X133360000Y-118204761D01*
X133407619Y-118157142D01*
X133455238Y-118061904D01*
X133455238Y-117966666D01*
X133407619Y-117871428D01*
X133360000Y-117823809D01*
X133264761Y-117776190D01*
X133074285Y-117728571D01*
X132979047Y-117680952D01*
X132931428Y-117633333D01*
X132883809Y-117538095D01*
X132883809Y-117442857D01*
X132931428Y-117347619D01*
X132979047Y-117300000D01*
X133074285Y-117252380D01*
X133312380Y-117252380D01*
X133455238Y-117300000D01*
X134074285Y-117252380D02*
X134264761Y-117252380D01*
X134360000Y-117300000D01*
X134455238Y-117395238D01*
X134502857Y-117585714D01*
X134502857Y-117919047D01*
X134455238Y-118109523D01*
X134360000Y-118204761D01*
X134264761Y-118252380D01*
X134074285Y-118252380D01*
X133979047Y-118204761D01*
X133883809Y-118109523D01*
X133836190Y-117919047D01*
X133836190Y-117585714D01*
X133883809Y-117395238D01*
X133979047Y-117300000D01*
X134074285Y-117252380D01*
X135502857Y-118252380D02*
X135169523Y-117776190D01*
X134931428Y-118252380D02*
X134931428Y-117252380D01*
X135312380Y-117252380D01*
X135407619Y-117300000D01*
X135455238Y-117347619D01*
X135502857Y-117442857D01*
X135502857Y-117585714D01*
X135455238Y-117680952D01*
X135407619Y-117728571D01*
X135312380Y-117776190D01*
X134931428Y-117776190D01*
X136598095Y-117252380D02*
X137217142Y-117252380D01*
X136883809Y-117633333D01*
X137026666Y-117633333D01*
X137121904Y-117680952D01*
X137169523Y-117728571D01*
X137217142Y-117823809D01*
X137217142Y-118061904D01*
X137169523Y-118157142D01*
X137121904Y-118204761D01*
X137026666Y-118252380D01*
X136740952Y-118252380D01*
X136645714Y-118204761D01*
X136598095Y-118157142D01*
X212618333Y-46337380D02*
X212285000Y-45861190D01*
X212046904Y-46337380D02*
X212046904Y-45337380D01*
X212427857Y-45337380D01*
X212523095Y-45385000D01*
X212570714Y-45432619D01*
X212618333Y-45527857D01*
X212618333Y-45670714D01*
X212570714Y-45765952D01*
X212523095Y-45813571D01*
X212427857Y-45861190D01*
X212046904Y-45861190D01*
X212951666Y-45337380D02*
X213618333Y-46337380D01*
X213618333Y-45337380D02*
X212951666Y-46337380D01*
X211508809Y-48037380D02*
X212127857Y-48037380D01*
X211794523Y-48418333D01*
X211937380Y-48418333D01*
X212032619Y-48465952D01*
X212080238Y-48513571D01*
X212127857Y-48608809D01*
X212127857Y-48846904D01*
X212080238Y-48942142D01*
X212032619Y-48989761D01*
X211937380Y-49037380D01*
X211651666Y-49037380D01*
X211556428Y-48989761D01*
X211508809Y-48942142D01*
X212556428Y-48942142D02*
X212604047Y-48989761D01*
X212556428Y-49037380D01*
X212508809Y-48989761D01*
X212556428Y-48942142D01*
X212556428Y-49037380D01*
X212937380Y-48037380D02*
X213556428Y-48037380D01*
X213223095Y-48418333D01*
X213365952Y-48418333D01*
X213461190Y-48465952D01*
X213508809Y-48513571D01*
X213556428Y-48608809D01*
X213556428Y-48846904D01*
X213508809Y-48942142D01*
X213461190Y-48989761D01*
X213365952Y-49037380D01*
X213080238Y-49037380D01*
X212985000Y-48989761D01*
X212937380Y-48942142D01*
X213842142Y-48037380D02*
X214175476Y-49037380D01*
X214508809Y-48037380D01*
X125026666Y-114600000D02*
X124931428Y-114552380D01*
X124788571Y-114552380D01*
X124645714Y-114600000D01*
X124550476Y-114695238D01*
X124502857Y-114790476D01*
X124455238Y-114980952D01*
X124455238Y-115123809D01*
X124502857Y-115314285D01*
X124550476Y-115409523D01*
X124645714Y-115504761D01*
X124788571Y-115552380D01*
X124883809Y-115552380D01*
X125026666Y-115504761D01*
X125074285Y-115457142D01*
X125074285Y-115123809D01*
X124883809Y-115123809D01*
X125502857Y-115552380D02*
X125502857Y-114552380D01*
X125883809Y-114552380D01*
X125979047Y-114600000D01*
X126026666Y-114647619D01*
X126074285Y-114742857D01*
X126074285Y-114885714D01*
X126026666Y-114980952D01*
X125979047Y-115028571D01*
X125883809Y-115076190D01*
X125502857Y-115076190D01*
X126502857Y-115552380D02*
X126502857Y-114552380D01*
X127169523Y-114552380D02*
X127360000Y-114552380D01*
X127455238Y-114600000D01*
X127550476Y-114695238D01*
X127598095Y-114885714D01*
X127598095Y-115219047D01*
X127550476Y-115409523D01*
X127455238Y-115504761D01*
X127360000Y-115552380D01*
X127169523Y-115552380D01*
X127074285Y-115504761D01*
X126979047Y-115409523D01*
X126931428Y-115219047D01*
X126931428Y-114885714D01*
X126979047Y-114695238D01*
X127074285Y-114600000D01*
X127169523Y-114552380D01*
X129312380Y-115552380D02*
X128740952Y-115552380D01*
X129026666Y-115552380D02*
X129026666Y-114552380D01*
X128931428Y-114695238D01*
X128836190Y-114790476D01*
X128740952Y-114838095D01*
X129645714Y-114552380D02*
X130264761Y-114552380D01*
X129931428Y-114933333D01*
X130074285Y-114933333D01*
X130169523Y-114980952D01*
X130217142Y-115028571D01*
X130264761Y-115123809D01*
X130264761Y-115361904D01*
X130217142Y-115457142D01*
X130169523Y-115504761D01*
X130074285Y-115552380D01*
X129788571Y-115552380D01*
X129693333Y-115504761D01*
X129645714Y-115457142D01*
X193944523Y-112052380D02*
X193468333Y-112052380D01*
X193420714Y-112528571D01*
X193468333Y-112480952D01*
X193563571Y-112433333D01*
X193801666Y-112433333D01*
X193896904Y-112480952D01*
X193944523Y-112528571D01*
X193992142Y-112623809D01*
X193992142Y-112861904D01*
X193944523Y-112957142D01*
X193896904Y-113004761D01*
X193801666Y-113052380D01*
X193563571Y-113052380D01*
X193468333Y-113004761D01*
X193420714Y-112957142D01*
X194277857Y-112052380D02*
X194611190Y-113052380D01*
X194944523Y-112052380D01*
X119918333Y-43877380D02*
X119918333Y-42877380D01*
X120489761Y-43877380D02*
X120061190Y-43305952D01*
X120489761Y-42877380D02*
X119918333Y-43448809D01*
X120918333Y-43877380D02*
X120918333Y-42877380D01*
X121489761Y-43877380D01*
X121489761Y-42877380D01*
X122156428Y-42877380D02*
X122346904Y-42877380D01*
X122442142Y-42925000D01*
X122537380Y-43020238D01*
X122585000Y-43210714D01*
X122585000Y-43544047D01*
X122537380Y-43734523D01*
X122442142Y-43829761D01*
X122346904Y-43877380D01*
X122156428Y-43877380D01*
X122061190Y-43829761D01*
X121965952Y-43734523D01*
X121918333Y-43544047D01*
X121918333Y-43210714D01*
X121965952Y-43020238D01*
X122061190Y-42925000D01*
X122156428Y-42877380D01*
X123013571Y-43877380D02*
X123013571Y-42877380D01*
X123394523Y-42877380D01*
X123489761Y-42925000D01*
X123537380Y-42972619D01*
X123585000Y-43067857D01*
X123585000Y-43210714D01*
X123537380Y-43305952D01*
X123489761Y-43353571D01*
X123394523Y-43401190D01*
X123013571Y-43401190D01*
X124680238Y-42877380D02*
X125299285Y-42877380D01*
X124965952Y-43258333D01*
X125108809Y-43258333D01*
X125204047Y-43305952D01*
X125251666Y-43353571D01*
X125299285Y-43448809D01*
X125299285Y-43686904D01*
X125251666Y-43782142D01*
X125204047Y-43829761D01*
X125108809Y-43877380D01*
X124823095Y-43877380D01*
X124727857Y-43829761D01*
X124680238Y-43782142D01*
X120018333Y-36377380D02*
X120018333Y-35377380D01*
X120589761Y-36377380D02*
X120161190Y-35805952D01*
X120589761Y-35377380D02*
X120018333Y-35948809D01*
X121018333Y-36377380D02*
X121018333Y-35377380D01*
X121589761Y-36377380D01*
X121589761Y-35377380D01*
X122256428Y-35377380D02*
X122446904Y-35377380D01*
X122542142Y-35425000D01*
X122637380Y-35520238D01*
X122685000Y-35710714D01*
X122685000Y-36044047D01*
X122637380Y-36234523D01*
X122542142Y-36329761D01*
X122446904Y-36377380D01*
X122256428Y-36377380D01*
X122161190Y-36329761D01*
X122065952Y-36234523D01*
X122018333Y-36044047D01*
X122018333Y-35710714D01*
X122065952Y-35520238D01*
X122161190Y-35425000D01*
X122256428Y-35377380D01*
X123113571Y-36377380D02*
X123113571Y-35377380D01*
X123494523Y-35377380D01*
X123589761Y-35425000D01*
X123637380Y-35472619D01*
X123685000Y-35567857D01*
X123685000Y-35710714D01*
X123637380Y-35805952D01*
X123589761Y-35853571D01*
X123494523Y-35901190D01*
X123113571Y-35901190D01*
X124827857Y-35472619D02*
X124875476Y-35425000D01*
X124970714Y-35377380D01*
X125208809Y-35377380D01*
X125304047Y-35425000D01*
X125351666Y-35472619D01*
X125399285Y-35567857D01*
X125399285Y-35663095D01*
X125351666Y-35805952D01*
X124780238Y-36377380D01*
X125399285Y-36377380D01*
X119651666Y-74325000D02*
X119556428Y-74277380D01*
X119413571Y-74277380D01*
X119270714Y-74325000D01*
X119175476Y-74420238D01*
X119127857Y-74515476D01*
X119080238Y-74705952D01*
X119080238Y-74848809D01*
X119127857Y-75039285D01*
X119175476Y-75134523D01*
X119270714Y-75229761D01*
X119413571Y-75277380D01*
X119508809Y-75277380D01*
X119651666Y-75229761D01*
X119699285Y-75182142D01*
X119699285Y-74848809D01*
X119508809Y-74848809D01*
X120127857Y-75277380D02*
X120127857Y-74277380D01*
X120508809Y-74277380D01*
X120604047Y-74325000D01*
X120651666Y-74372619D01*
X120699285Y-74467857D01*
X120699285Y-74610714D01*
X120651666Y-74705952D01*
X120604047Y-74753571D01*
X120508809Y-74801190D01*
X120127857Y-74801190D01*
X121127857Y-75277380D02*
X121127857Y-74277380D01*
X121794523Y-74277380D02*
X121985000Y-74277380D01*
X122080238Y-74325000D01*
X122175476Y-74420238D01*
X122223095Y-74610714D01*
X122223095Y-74944047D01*
X122175476Y-75134523D01*
X122080238Y-75229761D01*
X121985000Y-75277380D01*
X121794523Y-75277380D01*
X121699285Y-75229761D01*
X121604047Y-75134523D01*
X121556428Y-74944047D01*
X121556428Y-74610714D01*
X121604047Y-74420238D01*
X121699285Y-74325000D01*
X121794523Y-74277380D01*
X123937380Y-75277380D02*
X123365952Y-75277380D01*
X123651666Y-75277380D02*
X123651666Y-74277380D01*
X123556428Y-74420238D01*
X123461190Y-74515476D01*
X123365952Y-74563095D01*
X124794523Y-74610714D02*
X124794523Y-75277380D01*
X124556428Y-74229761D02*
X124318333Y-74944047D01*
X124937380Y-74944047D01*
X211551666Y-65325000D02*
X211456428Y-65277380D01*
X211313571Y-65277380D01*
X211170714Y-65325000D01*
X211075476Y-65420238D01*
X211027857Y-65515476D01*
X210980238Y-65705952D01*
X210980238Y-65848809D01*
X211027857Y-66039285D01*
X211075476Y-66134523D01*
X211170714Y-66229761D01*
X211313571Y-66277380D01*
X211408809Y-66277380D01*
X211551666Y-66229761D01*
X211599285Y-66182142D01*
X211599285Y-65848809D01*
X211408809Y-65848809D01*
X212027857Y-66277380D02*
X212027857Y-65277380D01*
X212408809Y-65277380D01*
X212504047Y-65325000D01*
X212551666Y-65372619D01*
X212599285Y-65467857D01*
X212599285Y-65610714D01*
X212551666Y-65705952D01*
X212504047Y-65753571D01*
X212408809Y-65801190D01*
X212027857Y-65801190D01*
X213027857Y-66277380D02*
X213027857Y-65277380D01*
X213694523Y-65277380D02*
X213885000Y-65277380D01*
X213980238Y-65325000D01*
X214075476Y-65420238D01*
X214123095Y-65610714D01*
X214123095Y-65944047D01*
X214075476Y-66134523D01*
X213980238Y-66229761D01*
X213885000Y-66277380D01*
X213694523Y-66277380D01*
X213599285Y-66229761D01*
X213504047Y-66134523D01*
X213456428Y-65944047D01*
X213456428Y-65610714D01*
X213504047Y-65420238D01*
X213599285Y-65325000D01*
X213694523Y-65277380D01*
X215837380Y-66277380D02*
X215265952Y-66277380D01*
X215551666Y-66277380D02*
X215551666Y-65277380D01*
X215456428Y-65420238D01*
X215361190Y-65515476D01*
X215265952Y-65563095D01*
X216694523Y-65277380D02*
X216504047Y-65277380D01*
X216408809Y-65325000D01*
X216361190Y-65372619D01*
X216265952Y-65515476D01*
X216218333Y-65705952D01*
X216218333Y-66086904D01*
X216265952Y-66182142D01*
X216313571Y-66229761D01*
X216408809Y-66277380D01*
X216599285Y-66277380D01*
X216694523Y-66229761D01*
X216742142Y-66182142D01*
X216789761Y-66086904D01*
X216789761Y-65848809D01*
X216742142Y-65753571D01*
X216694523Y-65705952D01*
X216599285Y-65658333D01*
X216408809Y-65658333D01*
X216313571Y-65705952D01*
X216265952Y-65753571D01*
X216218333Y-65848809D01*
X159769523Y-111552380D02*
X159293333Y-111552380D01*
X159245714Y-112028571D01*
X159293333Y-111980952D01*
X159388571Y-111933333D01*
X159626666Y-111933333D01*
X159721904Y-111980952D01*
X159769523Y-112028571D01*
X159817142Y-112123809D01*
X159817142Y-112361904D01*
X159769523Y-112457142D01*
X159721904Y-112504761D01*
X159626666Y-112552380D01*
X159388571Y-112552380D01*
X159293333Y-112504761D01*
X159245714Y-112457142D01*
X160102857Y-111552380D02*
X160436190Y-112552380D01*
X160769523Y-111552380D01*
D11*
X141414285Y-49592857D02*
X141914285Y-49592857D01*
X142128571Y-50378571D02*
X141414285Y-50378571D01*
X141414285Y-48878571D01*
X142128571Y-48878571D01*
X142771428Y-50378571D02*
X142771428Y-48878571D01*
X143628571Y-50378571D01*
X143628571Y-48878571D01*
X144271428Y-49950000D02*
X144985714Y-49950000D01*
X144128571Y-50378571D02*
X144628571Y-48878571D01*
X145128571Y-50378571D01*
X146128571Y-49592857D02*
X146342857Y-49664285D01*
X146414285Y-49735714D01*
X146485714Y-49878571D01*
X146485714Y-50092857D01*
X146414285Y-50235714D01*
X146342857Y-50307142D01*
X146200000Y-50378571D01*
X145628571Y-50378571D01*
X145628571Y-48878571D01*
X146128571Y-48878571D01*
X146271428Y-48950000D01*
X146342857Y-49021428D01*
X146414285Y-49164285D01*
X146414285Y-49307142D01*
X146342857Y-49450000D01*
X146271428Y-49521428D01*
X146128571Y-49592857D01*
X145628571Y-49592857D01*
X147842857Y-50378571D02*
X147128571Y-50378571D01*
X147128571Y-48878571D01*
X148342857Y-49592857D02*
X148842857Y-49592857D01*
X149057142Y-50378571D02*
X148342857Y-50378571D01*
X148342857Y-48878571D01*
X149057142Y-48878571D01*
X175014285Y-67692857D02*
X175228571Y-67764285D01*
X175300000Y-67835714D01*
X175371428Y-67978571D01*
X175371428Y-68192857D01*
X175300000Y-68335714D01*
X175228571Y-68407142D01*
X175085714Y-68478571D01*
X174514285Y-68478571D01*
X174514285Y-66978571D01*
X175014285Y-66978571D01*
X175157142Y-67050000D01*
X175228571Y-67121428D01*
X175300000Y-67264285D01*
X175300000Y-67407142D01*
X175228571Y-67550000D01*
X175157142Y-67621428D01*
X175014285Y-67692857D01*
X174514285Y-67692857D01*
X176300000Y-66978571D02*
X176585714Y-66978571D01*
X176728571Y-67050000D01*
X176871428Y-67192857D01*
X176942857Y-67478571D01*
X176942857Y-67978571D01*
X176871428Y-68264285D01*
X176728571Y-68407142D01*
X176585714Y-68478571D01*
X176300000Y-68478571D01*
X176157142Y-68407142D01*
X176014285Y-68264285D01*
X175942857Y-67978571D01*
X175942857Y-67478571D01*
X176014285Y-67192857D01*
X176157142Y-67050000D01*
X176300000Y-66978571D01*
X177871428Y-66978571D02*
X178157142Y-66978571D01*
X178300000Y-67050000D01*
X178442857Y-67192857D01*
X178514285Y-67478571D01*
X178514285Y-67978571D01*
X178442857Y-68264285D01*
X178300000Y-68407142D01*
X178157142Y-68478571D01*
X177871428Y-68478571D01*
X177728571Y-68407142D01*
X177585714Y-68264285D01*
X177514285Y-67978571D01*
X177514285Y-67478571D01*
X177585714Y-67192857D01*
X177728571Y-67050000D01*
X177871428Y-66978571D01*
X178942857Y-66978571D02*
X179800000Y-66978571D01*
X179371428Y-68478571D02*
X179371428Y-66978571D01*
D10*
X202311190Y-113052380D02*
X202311190Y-112052380D01*
X203358809Y-113052380D02*
X203025476Y-112576190D01*
X202787380Y-113052380D02*
X202787380Y-112052380D01*
X203168333Y-112052380D01*
X203263571Y-112100000D01*
X203311190Y-112147619D01*
X203358809Y-112242857D01*
X203358809Y-112385714D01*
X203311190Y-112480952D01*
X203263571Y-112528571D01*
X203168333Y-112576190D01*
X202787380Y-112576190D01*
X204454047Y-113147619D02*
X204358809Y-113100000D01*
X204263571Y-113004761D01*
X204120714Y-112861904D01*
X204025476Y-112814285D01*
X203930238Y-112814285D01*
X203977857Y-113052380D02*
X203882619Y-113004761D01*
X203787380Y-112909523D01*
X203739761Y-112719047D01*
X203739761Y-112385714D01*
X203787380Y-112195238D01*
X203882619Y-112100000D01*
X203977857Y-112052380D01*
X204168333Y-112052380D01*
X204263571Y-112100000D01*
X204358809Y-112195238D01*
X204406428Y-112385714D01*
X204406428Y-112719047D01*
X204358809Y-112909523D01*
X204263571Y-113004761D01*
X204168333Y-113052380D01*
X203977857Y-113052380D01*
X120308809Y-71777380D02*
X120927857Y-71777380D01*
X120594523Y-72158333D01*
X120737380Y-72158333D01*
X120832619Y-72205952D01*
X120880238Y-72253571D01*
X120927857Y-72348809D01*
X120927857Y-72586904D01*
X120880238Y-72682142D01*
X120832619Y-72729761D01*
X120737380Y-72777380D01*
X120451666Y-72777380D01*
X120356428Y-72729761D01*
X120308809Y-72682142D01*
X121356428Y-72682142D02*
X121404047Y-72729761D01*
X121356428Y-72777380D01*
X121308809Y-72729761D01*
X121356428Y-72682142D01*
X121356428Y-72777380D01*
X121737380Y-71777380D02*
X122356428Y-71777380D01*
X122023095Y-72158333D01*
X122165952Y-72158333D01*
X122261190Y-72205952D01*
X122308809Y-72253571D01*
X122356428Y-72348809D01*
X122356428Y-72586904D01*
X122308809Y-72682142D01*
X122261190Y-72729761D01*
X122165952Y-72777380D01*
X121880238Y-72777380D01*
X121785000Y-72729761D01*
X121737380Y-72682142D01*
X122642142Y-71777380D02*
X122975476Y-72777380D01*
X123308809Y-71777380D01*
X178869523Y-112052380D02*
X178393333Y-112052380D01*
X178345714Y-112528571D01*
X178393333Y-112480952D01*
X178488571Y-112433333D01*
X178726666Y-112433333D01*
X178821904Y-112480952D01*
X178869523Y-112528571D01*
X178917142Y-112623809D01*
X178917142Y-112861904D01*
X178869523Y-112957142D01*
X178821904Y-113004761D01*
X178726666Y-113052380D01*
X178488571Y-113052380D01*
X178393333Y-113004761D01*
X178345714Y-112957142D01*
X179202857Y-112052380D02*
X179536190Y-113052380D01*
X179869523Y-112052380D01*
X179166666Y-115152380D02*
X178833333Y-114676190D01*
X178595238Y-115152380D02*
X178595238Y-114152380D01*
X178976190Y-114152380D01*
X179071428Y-114200000D01*
X179119047Y-114247619D01*
X179166666Y-114342857D01*
X179166666Y-114485714D01*
X179119047Y-114580952D01*
X179071428Y-114628571D01*
X178976190Y-114676190D01*
X178595238Y-114676190D01*
X179928571Y-114628571D02*
X179595238Y-114628571D01*
X179595238Y-115152380D02*
X179595238Y-114152380D01*
X180071428Y-114152380D01*
X180452380Y-115152380D02*
X180452380Y-114152380D01*
X180928571Y-115152380D02*
X180928571Y-114152380D01*
X181166666Y-114152380D01*
X181309523Y-114200000D01*
X181404761Y-114295238D01*
X181452380Y-114390476D01*
X181500000Y-114580952D01*
X181500000Y-114723809D01*
X181452380Y-114914285D01*
X181404761Y-115009523D01*
X181309523Y-115104761D01*
X181166666Y-115152380D01*
X180928571Y-115152380D01*
X181880952Y-114247619D02*
X181928571Y-114200000D01*
X182023809Y-114152380D01*
X182261904Y-114152380D01*
X182357142Y-114200000D01*
X182404761Y-114247619D01*
X182452380Y-114342857D01*
X182452380Y-114438095D01*
X182404761Y-114580952D01*
X181833333Y-115152380D01*
X182452380Y-115152380D01*
X184145714Y-112904761D02*
X184288571Y-112952380D01*
X184526666Y-112952380D01*
X184621904Y-112904761D01*
X184669523Y-112857142D01*
X184717142Y-112761904D01*
X184717142Y-112666666D01*
X184669523Y-112571428D01*
X184621904Y-112523809D01*
X184526666Y-112476190D01*
X184336190Y-112428571D01*
X184240952Y-112380952D01*
X184193333Y-112333333D01*
X184145714Y-112238095D01*
X184145714Y-112142857D01*
X184193333Y-112047619D01*
X184240952Y-112000000D01*
X184336190Y-111952380D01*
X184574285Y-111952380D01*
X184717142Y-112000000D01*
X185145714Y-112952380D02*
X185145714Y-111952380D01*
X185383809Y-111952380D01*
X185526666Y-112000000D01*
X185621904Y-112095238D01*
X185669523Y-112190476D01*
X185717142Y-112380952D01*
X185717142Y-112523809D01*
X185669523Y-112714285D01*
X185621904Y-112809523D01*
X185526666Y-112904761D01*
X185383809Y-112952380D01*
X185145714Y-112952380D01*
X186098095Y-112666666D02*
X186574285Y-112666666D01*
X186002857Y-112952380D02*
X186336190Y-111952380D01*
X186669523Y-112952380D01*
X212123095Y-30925000D02*
X212027857Y-30877380D01*
X211885000Y-30877380D01*
X211742142Y-30925000D01*
X211646904Y-31020238D01*
X211599285Y-31115476D01*
X211551666Y-31305952D01*
X211551666Y-31448809D01*
X211599285Y-31639285D01*
X211646904Y-31734523D01*
X211742142Y-31829761D01*
X211885000Y-31877380D01*
X211980238Y-31877380D01*
X212123095Y-31829761D01*
X212170714Y-31782142D01*
X212170714Y-31448809D01*
X211980238Y-31448809D01*
X212599285Y-31877380D02*
X212599285Y-30877380D01*
X213170714Y-31877380D01*
X213170714Y-30877380D01*
X213646904Y-31877380D02*
X213646904Y-30877380D01*
X213885000Y-30877380D01*
X214027857Y-30925000D01*
X214123095Y-31020238D01*
X214170714Y-31115476D01*
X214218333Y-31305952D01*
X214218333Y-31448809D01*
X214170714Y-31639285D01*
X214123095Y-31734523D01*
X214027857Y-31829761D01*
X213885000Y-31877380D01*
X213646904Y-31877380D01*
X119736666Y-61250000D02*
X119641428Y-61202380D01*
X119498571Y-61202380D01*
X119355714Y-61250000D01*
X119260476Y-61345238D01*
X119212857Y-61440476D01*
X119165238Y-61630952D01*
X119165238Y-61773809D01*
X119212857Y-61964285D01*
X119260476Y-62059523D01*
X119355714Y-62154761D01*
X119498571Y-62202380D01*
X119593809Y-62202380D01*
X119736666Y-62154761D01*
X119784285Y-62107142D01*
X119784285Y-61773809D01*
X119593809Y-61773809D01*
X120212857Y-62202380D02*
X120212857Y-61202380D01*
X120593809Y-61202380D01*
X120689047Y-61250000D01*
X120736666Y-61297619D01*
X120784285Y-61392857D01*
X120784285Y-61535714D01*
X120736666Y-61630952D01*
X120689047Y-61678571D01*
X120593809Y-61726190D01*
X120212857Y-61726190D01*
X121212857Y-62202380D02*
X121212857Y-61202380D01*
X121879523Y-61202380D02*
X122070000Y-61202380D01*
X122165238Y-61250000D01*
X122260476Y-61345238D01*
X122308095Y-61535714D01*
X122308095Y-61869047D01*
X122260476Y-62059523D01*
X122165238Y-62154761D01*
X122070000Y-62202380D01*
X121879523Y-62202380D01*
X121784285Y-62154761D01*
X121689047Y-62059523D01*
X121641428Y-61869047D01*
X121641428Y-61535714D01*
X121689047Y-61345238D01*
X121784285Y-61250000D01*
X121879523Y-61202380D01*
X123450952Y-61297619D02*
X123498571Y-61250000D01*
X123593809Y-61202380D01*
X123831904Y-61202380D01*
X123927142Y-61250000D01*
X123974761Y-61297619D01*
X124022380Y-61392857D01*
X124022380Y-61488095D01*
X123974761Y-61630952D01*
X123403333Y-62202380D01*
X124022380Y-62202380D01*
X124355714Y-61202380D02*
X125022380Y-61202380D01*
X124593809Y-62202380D01*
X211551666Y-57725000D02*
X211456428Y-57677380D01*
X211313571Y-57677380D01*
X211170714Y-57725000D01*
X211075476Y-57820238D01*
X211027857Y-57915476D01*
X210980238Y-58105952D01*
X210980238Y-58248809D01*
X211027857Y-58439285D01*
X211075476Y-58534523D01*
X211170714Y-58629761D01*
X211313571Y-58677380D01*
X211408809Y-58677380D01*
X211551666Y-58629761D01*
X211599285Y-58582142D01*
X211599285Y-58248809D01*
X211408809Y-58248809D01*
X212027857Y-58677380D02*
X212027857Y-57677380D01*
X212408809Y-57677380D01*
X212504047Y-57725000D01*
X212551666Y-57772619D01*
X212599285Y-57867857D01*
X212599285Y-58010714D01*
X212551666Y-58105952D01*
X212504047Y-58153571D01*
X212408809Y-58201190D01*
X212027857Y-58201190D01*
X213027857Y-58677380D02*
X213027857Y-57677380D01*
X213694523Y-57677380D02*
X213885000Y-57677380D01*
X213980238Y-57725000D01*
X214075476Y-57820238D01*
X214123095Y-58010714D01*
X214123095Y-58344047D01*
X214075476Y-58534523D01*
X213980238Y-58629761D01*
X213885000Y-58677380D01*
X213694523Y-58677380D01*
X213599285Y-58629761D01*
X213504047Y-58534523D01*
X213456428Y-58344047D01*
X213456428Y-58010714D01*
X213504047Y-57820238D01*
X213599285Y-57725000D01*
X213694523Y-57677380D01*
X215837380Y-58677380D02*
X215265952Y-58677380D01*
X215551666Y-58677380D02*
X215551666Y-57677380D01*
X215456428Y-57820238D01*
X215361190Y-57915476D01*
X215265952Y-57963095D01*
X216408809Y-58105952D02*
X216313571Y-58058333D01*
X216265952Y-58010714D01*
X216218333Y-57915476D01*
X216218333Y-57867857D01*
X216265952Y-57772619D01*
X216313571Y-57725000D01*
X216408809Y-57677380D01*
X216599285Y-57677380D01*
X216694523Y-57725000D01*
X216742142Y-57772619D01*
X216789761Y-57867857D01*
X216789761Y-57915476D01*
X216742142Y-58010714D01*
X216694523Y-58058333D01*
X216599285Y-58105952D01*
X216408809Y-58105952D01*
X216313571Y-58153571D01*
X216265952Y-58201190D01*
X216218333Y-58296428D01*
X216218333Y-58486904D01*
X216265952Y-58582142D01*
X216313571Y-58629761D01*
X216408809Y-58677380D01*
X216599285Y-58677380D01*
X216694523Y-58629761D01*
X216742142Y-58582142D01*
X216789761Y-58486904D01*
X216789761Y-58296428D01*
X216742142Y-58201190D01*
X216694523Y-58153571D01*
X216599285Y-58105952D01*
X122193809Y-37617380D02*
X122812857Y-37617380D01*
X122479523Y-37998333D01*
X122622380Y-37998333D01*
X122717619Y-38045952D01*
X122765238Y-38093571D01*
X122812857Y-38188809D01*
X122812857Y-38426904D01*
X122765238Y-38522142D01*
X122717619Y-38569761D01*
X122622380Y-38617380D01*
X122336666Y-38617380D01*
X122241428Y-38569761D01*
X122193809Y-38522142D01*
X123241428Y-38522142D02*
X123289047Y-38569761D01*
X123241428Y-38617380D01*
X123193809Y-38569761D01*
X123241428Y-38522142D01*
X123241428Y-38617380D01*
X123622380Y-37617380D02*
X124241428Y-37617380D01*
X123908095Y-37998333D01*
X124050952Y-37998333D01*
X124146190Y-38045952D01*
X124193809Y-38093571D01*
X124241428Y-38188809D01*
X124241428Y-38426904D01*
X124193809Y-38522142D01*
X124146190Y-38569761D01*
X124050952Y-38617380D01*
X123765238Y-38617380D01*
X123670000Y-38569761D01*
X123622380Y-38522142D01*
X124527142Y-37617380D02*
X124860476Y-38617380D01*
X125193809Y-37617380D01*
X120251666Y-32300000D02*
X120156428Y-32252380D01*
X120013571Y-32252380D01*
X119870714Y-32300000D01*
X119775476Y-32395238D01*
X119727857Y-32490476D01*
X119680238Y-32680952D01*
X119680238Y-32823809D01*
X119727857Y-33014285D01*
X119775476Y-33109523D01*
X119870714Y-33204761D01*
X120013571Y-33252380D01*
X120108809Y-33252380D01*
X120251666Y-33204761D01*
X120299285Y-33157142D01*
X120299285Y-32823809D01*
X120108809Y-32823809D01*
X120727857Y-33252380D02*
X120727857Y-32252380D01*
X121108809Y-32252380D01*
X121204047Y-32300000D01*
X121251666Y-32347619D01*
X121299285Y-32442857D01*
X121299285Y-32585714D01*
X121251666Y-32680952D01*
X121204047Y-32728571D01*
X121108809Y-32776190D01*
X120727857Y-32776190D01*
X121727857Y-33252380D02*
X121727857Y-32252380D01*
X122394523Y-32252380D02*
X122585000Y-32252380D01*
X122680238Y-32300000D01*
X122775476Y-32395238D01*
X122823095Y-32585714D01*
X122823095Y-32919047D01*
X122775476Y-33109523D01*
X122680238Y-33204761D01*
X122585000Y-33252380D01*
X122394523Y-33252380D01*
X122299285Y-33204761D01*
X122204047Y-33109523D01*
X122156428Y-32919047D01*
X122156428Y-32585714D01*
X122204047Y-32395238D01*
X122299285Y-32300000D01*
X122394523Y-32252380D01*
X123918333Y-32252380D02*
X124537380Y-32252380D01*
X124204047Y-32633333D01*
X124346904Y-32633333D01*
X124442142Y-32680952D01*
X124489761Y-32728571D01*
X124537380Y-32823809D01*
X124537380Y-33061904D01*
X124489761Y-33157142D01*
X124442142Y-33204761D01*
X124346904Y-33252380D01*
X124061190Y-33252380D01*
X123965952Y-33204761D01*
X123918333Y-33157142D01*
X124918333Y-32347619D02*
X124965952Y-32300000D01*
X125061190Y-32252380D01*
X125299285Y-32252380D01*
X125394523Y-32300000D01*
X125442142Y-32347619D01*
X125489761Y-32442857D01*
X125489761Y-32538095D01*
X125442142Y-32680952D01*
X124870714Y-33252380D01*
X125489761Y-33252380D01*
X212309523Y-74452380D02*
X211833333Y-74452380D01*
X211833333Y-73452380D01*
X213214285Y-74357142D02*
X213166666Y-74404761D01*
X213023809Y-74452380D01*
X212928571Y-74452380D01*
X212785714Y-74404761D01*
X212690476Y-74309523D01*
X212642857Y-74214285D01*
X212595238Y-74023809D01*
X212595238Y-73880952D01*
X212642857Y-73690476D01*
X212690476Y-73595238D01*
X212785714Y-73500000D01*
X212928571Y-73452380D01*
X213023809Y-73452380D01*
X213166666Y-73500000D01*
X213214285Y-73547619D01*
X213642857Y-74452380D02*
X213642857Y-73452380D01*
X213880952Y-73452380D01*
X214023809Y-73500000D01*
X214119047Y-73595238D01*
X214166666Y-73690476D01*
X214214285Y-73880952D01*
X214214285Y-74023809D01*
X214166666Y-74214285D01*
X214119047Y-74309523D01*
X214023809Y-74404761D01*
X213880952Y-74452380D01*
X213642857Y-74452380D01*
X211351666Y-33425000D02*
X211256428Y-33377380D01*
X211113571Y-33377380D01*
X210970714Y-33425000D01*
X210875476Y-33520238D01*
X210827857Y-33615476D01*
X210780238Y-33805952D01*
X210780238Y-33948809D01*
X210827857Y-34139285D01*
X210875476Y-34234523D01*
X210970714Y-34329761D01*
X211113571Y-34377380D01*
X211208809Y-34377380D01*
X211351666Y-34329761D01*
X211399285Y-34282142D01*
X211399285Y-33948809D01*
X211208809Y-33948809D01*
X211827857Y-34377380D02*
X211827857Y-33377380D01*
X212208809Y-33377380D01*
X212304047Y-33425000D01*
X212351666Y-33472619D01*
X212399285Y-33567857D01*
X212399285Y-33710714D01*
X212351666Y-33805952D01*
X212304047Y-33853571D01*
X212208809Y-33901190D01*
X211827857Y-33901190D01*
X212827857Y-34377380D02*
X212827857Y-33377380D01*
X213494523Y-33377380D02*
X213685000Y-33377380D01*
X213780238Y-33425000D01*
X213875476Y-33520238D01*
X213923095Y-33710714D01*
X213923095Y-34044047D01*
X213875476Y-34234523D01*
X213780238Y-34329761D01*
X213685000Y-34377380D01*
X213494523Y-34377380D01*
X213399285Y-34329761D01*
X213304047Y-34234523D01*
X213256428Y-34044047D01*
X213256428Y-33710714D01*
X213304047Y-33520238D01*
X213399285Y-33425000D01*
X213494523Y-33377380D01*
X215065952Y-33472619D02*
X215113571Y-33425000D01*
X215208809Y-33377380D01*
X215446904Y-33377380D01*
X215542142Y-33425000D01*
X215589761Y-33472619D01*
X215637380Y-33567857D01*
X215637380Y-33663095D01*
X215589761Y-33805952D01*
X215018333Y-34377380D01*
X215637380Y-34377380D01*
X215970714Y-33377380D02*
X216589761Y-33377380D01*
X216256428Y-33758333D01*
X216399285Y-33758333D01*
X216494523Y-33805952D01*
X216542142Y-33853571D01*
X216589761Y-33948809D01*
X216589761Y-34186904D01*
X216542142Y-34282142D01*
X216494523Y-34329761D01*
X216399285Y-34377380D01*
X216113571Y-34377380D01*
X216018333Y-34329761D01*
X215970714Y-34282142D01*
X170598095Y-111800000D02*
X170502857Y-111752380D01*
X170360000Y-111752380D01*
X170217142Y-111800000D01*
X170121904Y-111895238D01*
X170074285Y-111990476D01*
X170026666Y-112180952D01*
X170026666Y-112323809D01*
X170074285Y-112514285D01*
X170121904Y-112609523D01*
X170217142Y-112704761D01*
X170360000Y-112752380D01*
X170455238Y-112752380D01*
X170598095Y-112704761D01*
X170645714Y-112657142D01*
X170645714Y-112323809D01*
X170455238Y-112323809D01*
X171074285Y-112752380D02*
X171074285Y-111752380D01*
X171645714Y-112752380D01*
X171645714Y-111752380D01*
X172121904Y-112752380D02*
X172121904Y-111752380D01*
X172360000Y-111752380D01*
X172502857Y-111800000D01*
X172598095Y-111895238D01*
X172645714Y-111990476D01*
X172693333Y-112180952D01*
X172693333Y-112323809D01*
X172645714Y-112514285D01*
X172598095Y-112609523D01*
X172502857Y-112704761D01*
X172360000Y-112752380D01*
X172121904Y-112752380D01*
X119351666Y-76825000D02*
X119256428Y-76777380D01*
X119113571Y-76777380D01*
X118970714Y-76825000D01*
X118875476Y-76920238D01*
X118827857Y-77015476D01*
X118780238Y-77205952D01*
X118780238Y-77348809D01*
X118827857Y-77539285D01*
X118875476Y-77634523D01*
X118970714Y-77729761D01*
X119113571Y-77777380D01*
X119208809Y-77777380D01*
X119351666Y-77729761D01*
X119399285Y-77682142D01*
X119399285Y-77348809D01*
X119208809Y-77348809D01*
X119827857Y-77777380D02*
X119827857Y-76777380D01*
X120208809Y-76777380D01*
X120304047Y-76825000D01*
X120351666Y-76872619D01*
X120399285Y-76967857D01*
X120399285Y-77110714D01*
X120351666Y-77205952D01*
X120304047Y-77253571D01*
X120208809Y-77301190D01*
X119827857Y-77301190D01*
X120827857Y-77777380D02*
X120827857Y-76777380D01*
X121494523Y-76777380D02*
X121685000Y-76777380D01*
X121780238Y-76825000D01*
X121875476Y-76920238D01*
X121923095Y-77110714D01*
X121923095Y-77444047D01*
X121875476Y-77634523D01*
X121780238Y-77729761D01*
X121685000Y-77777380D01*
X121494523Y-77777380D01*
X121399285Y-77729761D01*
X121304047Y-77634523D01*
X121256428Y-77444047D01*
X121256428Y-77110714D01*
X121304047Y-76920238D01*
X121399285Y-76825000D01*
X121494523Y-76777380D01*
X123637380Y-77777380D02*
X123065952Y-77777380D01*
X123351666Y-77777380D02*
X123351666Y-76777380D01*
X123256428Y-76920238D01*
X123161190Y-77015476D01*
X123065952Y-77063095D01*
X124018333Y-76872619D02*
X124065952Y-76825000D01*
X124161190Y-76777380D01*
X124399285Y-76777380D01*
X124494523Y-76825000D01*
X124542142Y-76872619D01*
X124589761Y-76967857D01*
X124589761Y-77063095D01*
X124542142Y-77205952D01*
X123970714Y-77777380D01*
X124589761Y-77777380D01*
X118751666Y-52877380D02*
X118275476Y-52877380D01*
X118275476Y-51877380D01*
X119275476Y-51877380D02*
X119465952Y-51877380D01*
X119561190Y-51925000D01*
X119656428Y-52020238D01*
X119704047Y-52210714D01*
X119704047Y-52544047D01*
X119656428Y-52734523D01*
X119561190Y-52829761D01*
X119465952Y-52877380D01*
X119275476Y-52877380D01*
X119180238Y-52829761D01*
X119085000Y-52734523D01*
X119037380Y-52544047D01*
X119037380Y-52210714D01*
X119085000Y-52020238D01*
X119180238Y-51925000D01*
X119275476Y-51877380D01*
X120085000Y-52591666D02*
X120561190Y-52591666D01*
X119989761Y-52877380D02*
X120323095Y-51877380D01*
X120656428Y-52877380D01*
X120989761Y-52877380D02*
X120989761Y-51877380D01*
X121227857Y-51877380D01*
X121370714Y-51925000D01*
X121465952Y-52020238D01*
X121513571Y-52115476D01*
X121561190Y-52305952D01*
X121561190Y-52448809D01*
X121513571Y-52639285D01*
X121465952Y-52734523D01*
X121370714Y-52829761D01*
X121227857Y-52877380D01*
X120989761Y-52877380D01*
X122704047Y-52829761D02*
X122846904Y-52877380D01*
X123085000Y-52877380D01*
X123180238Y-52829761D01*
X123227857Y-52782142D01*
X123275476Y-52686904D01*
X123275476Y-52591666D01*
X123227857Y-52496428D01*
X123180238Y-52448809D01*
X123085000Y-52401190D01*
X122894523Y-52353571D01*
X122799285Y-52305952D01*
X122751666Y-52258333D01*
X122704047Y-52163095D01*
X122704047Y-52067857D01*
X122751666Y-51972619D01*
X122799285Y-51925000D01*
X122894523Y-51877380D01*
X123132619Y-51877380D01*
X123275476Y-51925000D01*
X123704047Y-52353571D02*
X124037380Y-52353571D01*
X124180238Y-52877380D02*
X123704047Y-52877380D01*
X123704047Y-51877380D01*
X124180238Y-51877380D01*
X124608809Y-52877380D02*
X124608809Y-51877380D01*
X125180238Y-52877380D01*
X125180238Y-51877380D01*
X125608809Y-52829761D02*
X125751666Y-52877380D01*
X125989761Y-52877380D01*
X126085000Y-52829761D01*
X126132619Y-52782142D01*
X126180238Y-52686904D01*
X126180238Y-52591666D01*
X126132619Y-52496428D01*
X126085000Y-52448809D01*
X125989761Y-52401190D01*
X125799285Y-52353571D01*
X125704047Y-52305952D01*
X125656428Y-52258333D01*
X125608809Y-52163095D01*
X125608809Y-52067857D01*
X125656428Y-51972619D01*
X125704047Y-51925000D01*
X125799285Y-51877380D01*
X126037380Y-51877380D01*
X126180238Y-51925000D01*
X126799285Y-51877380D02*
X126989761Y-51877380D01*
X127085000Y-51925000D01*
X127180238Y-52020238D01*
X127227857Y-52210714D01*
X127227857Y-52544047D01*
X127180238Y-52734523D01*
X127085000Y-52829761D01*
X126989761Y-52877380D01*
X126799285Y-52877380D01*
X126704047Y-52829761D01*
X126608809Y-52734523D01*
X126561190Y-52544047D01*
X126561190Y-52210714D01*
X126608809Y-52020238D01*
X126704047Y-51925000D01*
X126799285Y-51877380D01*
X128227857Y-52877380D02*
X127894523Y-52401190D01*
X127656428Y-52877380D02*
X127656428Y-51877380D01*
X128037380Y-51877380D01*
X128132619Y-51925000D01*
X128180238Y-51972619D01*
X128227857Y-52067857D01*
X128227857Y-52210714D01*
X128180238Y-52305952D01*
X128132619Y-52353571D01*
X128037380Y-52401190D01*
X127656428Y-52401190D01*
X129942142Y-52877380D02*
X129370714Y-52877380D01*
X129656428Y-52877380D02*
X129656428Y-51877380D01*
X129561190Y-52020238D01*
X129465952Y-52115476D01*
X129370714Y-52163095D01*
X211551666Y-55125000D02*
X211456428Y-55077380D01*
X211313571Y-55077380D01*
X211170714Y-55125000D01*
X211075476Y-55220238D01*
X211027857Y-55315476D01*
X210980238Y-55505952D01*
X210980238Y-55648809D01*
X211027857Y-55839285D01*
X211075476Y-55934523D01*
X211170714Y-56029761D01*
X211313571Y-56077380D01*
X211408809Y-56077380D01*
X211551666Y-56029761D01*
X211599285Y-55982142D01*
X211599285Y-55648809D01*
X211408809Y-55648809D01*
X212027857Y-56077380D02*
X212027857Y-55077380D01*
X212408809Y-55077380D01*
X212504047Y-55125000D01*
X212551666Y-55172619D01*
X212599285Y-55267857D01*
X212599285Y-55410714D01*
X212551666Y-55505952D01*
X212504047Y-55553571D01*
X212408809Y-55601190D01*
X212027857Y-55601190D01*
X213027857Y-56077380D02*
X213027857Y-55077380D01*
X213694523Y-55077380D02*
X213885000Y-55077380D01*
X213980238Y-55125000D01*
X214075476Y-55220238D01*
X214123095Y-55410714D01*
X214123095Y-55744047D01*
X214075476Y-55934523D01*
X213980238Y-56029761D01*
X213885000Y-56077380D01*
X213694523Y-56077380D01*
X213599285Y-56029761D01*
X213504047Y-55934523D01*
X213456428Y-55744047D01*
X213456428Y-55410714D01*
X213504047Y-55220238D01*
X213599285Y-55125000D01*
X213694523Y-55077380D01*
X215837380Y-56077380D02*
X215265952Y-56077380D01*
X215551666Y-56077380D02*
X215551666Y-55077380D01*
X215456428Y-55220238D01*
X215361190Y-55315476D01*
X215265952Y-55363095D01*
X216313571Y-56077380D02*
X216504047Y-56077380D01*
X216599285Y-56029761D01*
X216646904Y-55982142D01*
X216742142Y-55839285D01*
X216789761Y-55648809D01*
X216789761Y-55267857D01*
X216742142Y-55172619D01*
X216694523Y-55125000D01*
X216599285Y-55077380D01*
X216408809Y-55077380D01*
X216313571Y-55125000D01*
X216265952Y-55172619D01*
X216218333Y-55267857D01*
X216218333Y-55505952D01*
X216265952Y-55601190D01*
X216313571Y-55648809D01*
X216408809Y-55696428D01*
X216599285Y-55696428D01*
X216694523Y-55648809D01*
X216742142Y-55601190D01*
X216789761Y-55505952D01*
X161226666Y-114852380D02*
X160893333Y-114376190D01*
X160655238Y-114852380D02*
X160655238Y-113852380D01*
X161036190Y-113852380D01*
X161131428Y-113900000D01*
X161179047Y-113947619D01*
X161226666Y-114042857D01*
X161226666Y-114185714D01*
X161179047Y-114280952D01*
X161131428Y-114328571D01*
X161036190Y-114376190D01*
X160655238Y-114376190D01*
X161988571Y-114328571D02*
X161655238Y-114328571D01*
X161655238Y-114852380D02*
X161655238Y-113852380D01*
X162131428Y-113852380D01*
X162512380Y-114852380D02*
X162512380Y-113852380D01*
X162988571Y-114852380D02*
X162988571Y-113852380D01*
X163226666Y-113852380D01*
X163369523Y-113900000D01*
X163464761Y-113995238D01*
X163512380Y-114090476D01*
X163560000Y-114280952D01*
X163560000Y-114423809D01*
X163512380Y-114614285D01*
X163464761Y-114709523D01*
X163369523Y-114804761D01*
X163226666Y-114852380D01*
X162988571Y-114852380D01*
X164512380Y-114852380D02*
X163940952Y-114852380D01*
X164226666Y-114852380D02*
X164226666Y-113852380D01*
X164131428Y-113995238D01*
X164036190Y-114090476D01*
X163940952Y-114138095D01*
X215209523Y-84872380D02*
X214733333Y-84872380D01*
X214685714Y-85348571D01*
X214733333Y-85300952D01*
X214828571Y-85253333D01*
X215066666Y-85253333D01*
X215161904Y-85300952D01*
X215209523Y-85348571D01*
X215257142Y-85443809D01*
X215257142Y-85681904D01*
X215209523Y-85777142D01*
X215161904Y-85824761D01*
X215066666Y-85872380D01*
X214828571Y-85872380D01*
X214733333Y-85824761D01*
X214685714Y-85777142D01*
X215542857Y-84872380D02*
X215876190Y-85872380D01*
X216209523Y-84872380D01*
X195744523Y-113004761D02*
X195887380Y-113052380D01*
X196125476Y-113052380D01*
X196220714Y-113004761D01*
X196268333Y-112957142D01*
X196315952Y-112861904D01*
X196315952Y-112766666D01*
X196268333Y-112671428D01*
X196220714Y-112623809D01*
X196125476Y-112576190D01*
X195935000Y-112528571D01*
X195839761Y-112480952D01*
X195792142Y-112433333D01*
X195744523Y-112338095D01*
X195744523Y-112242857D01*
X195792142Y-112147619D01*
X195839761Y-112100000D01*
X195935000Y-112052380D01*
X196173095Y-112052380D01*
X196315952Y-112100000D01*
X197315952Y-112957142D02*
X197268333Y-113004761D01*
X197125476Y-113052380D01*
X197030238Y-113052380D01*
X196887380Y-113004761D01*
X196792142Y-112909523D01*
X196744523Y-112814285D01*
X196696904Y-112623809D01*
X196696904Y-112480952D01*
X196744523Y-112290476D01*
X196792142Y-112195238D01*
X196887380Y-112100000D01*
X197030238Y-112052380D01*
X197125476Y-112052380D01*
X197268333Y-112100000D01*
X197315952Y-112147619D01*
X198220714Y-113052380D02*
X197744523Y-113052380D01*
X197744523Y-112052380D01*
X121708095Y-55950000D02*
X121612857Y-55902380D01*
X121470000Y-55902380D01*
X121327142Y-55950000D01*
X121231904Y-56045238D01*
X121184285Y-56140476D01*
X121136666Y-56330952D01*
X121136666Y-56473809D01*
X121184285Y-56664285D01*
X121231904Y-56759523D01*
X121327142Y-56854761D01*
X121470000Y-56902380D01*
X121565238Y-56902380D01*
X121708095Y-56854761D01*
X121755714Y-56807142D01*
X121755714Y-56473809D01*
X121565238Y-56473809D01*
X122184285Y-56902380D02*
X122184285Y-55902380D01*
X122755714Y-56902380D01*
X122755714Y-55902380D01*
X123231904Y-56902380D02*
X123231904Y-55902380D01*
X123470000Y-55902380D01*
X123612857Y-55950000D01*
X123708095Y-56045238D01*
X123755714Y-56140476D01*
X123803333Y-56330952D01*
X123803333Y-56473809D01*
X123755714Y-56664285D01*
X123708095Y-56759523D01*
X123612857Y-56854761D01*
X123470000Y-56902380D01*
X123231904Y-56902380D01*
X212027857Y-70425000D02*
X211932619Y-70377380D01*
X211789761Y-70377380D01*
X211646904Y-70425000D01*
X211551666Y-70520238D01*
X211504047Y-70615476D01*
X211456428Y-70805952D01*
X211456428Y-70948809D01*
X211504047Y-71139285D01*
X211551666Y-71234523D01*
X211646904Y-71329761D01*
X211789761Y-71377380D01*
X211885000Y-71377380D01*
X212027857Y-71329761D01*
X212075476Y-71282142D01*
X212075476Y-70948809D01*
X211885000Y-70948809D01*
X212504047Y-71377380D02*
X212504047Y-70377380D01*
X212885000Y-70377380D01*
X212980238Y-70425000D01*
X213027857Y-70472619D01*
X213075476Y-70567857D01*
X213075476Y-70710714D01*
X213027857Y-70805952D01*
X212980238Y-70853571D01*
X212885000Y-70901190D01*
X212504047Y-70901190D01*
X213504047Y-71377380D02*
X213504047Y-70377380D01*
X214170714Y-70377380D02*
X214361190Y-70377380D01*
X214456428Y-70425000D01*
X214551666Y-70520238D01*
X214599285Y-70710714D01*
X214599285Y-71044047D01*
X214551666Y-71234523D01*
X214456428Y-71329761D01*
X214361190Y-71377380D01*
X214170714Y-71377380D01*
X214075476Y-71329761D01*
X213980238Y-71234523D01*
X213932619Y-71044047D01*
X213932619Y-70710714D01*
X213980238Y-70520238D01*
X214075476Y-70425000D01*
X214170714Y-70377380D01*
X215742142Y-70472619D02*
X215789761Y-70425000D01*
X215885000Y-70377380D01*
X216123095Y-70377380D01*
X216218333Y-70425000D01*
X216265952Y-70472619D01*
X216313571Y-70567857D01*
X216313571Y-70663095D01*
X216265952Y-70805952D01*
X215694523Y-71377380D01*
X216313571Y-71377380D01*
X162369523Y-112604761D02*
X162512380Y-112652380D01*
X162750476Y-112652380D01*
X162845714Y-112604761D01*
X162893333Y-112557142D01*
X162940952Y-112461904D01*
X162940952Y-112366666D01*
X162893333Y-112271428D01*
X162845714Y-112223809D01*
X162750476Y-112176190D01*
X162560000Y-112128571D01*
X162464761Y-112080952D01*
X162417142Y-112033333D01*
X162369523Y-111938095D01*
X162369523Y-111842857D01*
X162417142Y-111747619D01*
X162464761Y-111700000D01*
X162560000Y-111652380D01*
X162798095Y-111652380D01*
X162940952Y-111700000D01*
X163940952Y-112557142D02*
X163893333Y-112604761D01*
X163750476Y-112652380D01*
X163655238Y-112652380D01*
X163512380Y-112604761D01*
X163417142Y-112509523D01*
X163369523Y-112414285D01*
X163321904Y-112223809D01*
X163321904Y-112080952D01*
X163369523Y-111890476D01*
X163417142Y-111795238D01*
X163512380Y-111700000D01*
X163655238Y-111652380D01*
X163750476Y-111652380D01*
X163893333Y-111700000D01*
X163940952Y-111747619D01*
X164845714Y-112652380D02*
X164369523Y-112652380D01*
X164369523Y-111652380D01*
X209198095Y-111600000D02*
X209102857Y-111552380D01*
X208960000Y-111552380D01*
X208817142Y-111600000D01*
X208721904Y-111695238D01*
X208674285Y-111790476D01*
X208626666Y-111980952D01*
X208626666Y-112123809D01*
X208674285Y-112314285D01*
X208721904Y-112409523D01*
X208817142Y-112504761D01*
X208960000Y-112552380D01*
X209055238Y-112552380D01*
X209198095Y-112504761D01*
X209245714Y-112457142D01*
X209245714Y-112123809D01*
X209055238Y-112123809D01*
X209674285Y-112552380D02*
X209674285Y-111552380D01*
X210245714Y-112552380D01*
X210245714Y-111552380D01*
X210721904Y-112552380D02*
X210721904Y-111552380D01*
X210960000Y-111552380D01*
X211102857Y-111600000D01*
X211198095Y-111695238D01*
X211245714Y-111790476D01*
X211293333Y-111980952D01*
X211293333Y-112123809D01*
X211245714Y-112314285D01*
X211198095Y-112409523D01*
X211102857Y-112504761D01*
X210960000Y-112552380D01*
X210721904Y-112552380D01*
X120336666Y-40065000D02*
X120241428Y-40017380D01*
X120098571Y-40017380D01*
X119955714Y-40065000D01*
X119860476Y-40160238D01*
X119812857Y-40255476D01*
X119765238Y-40445952D01*
X119765238Y-40588809D01*
X119812857Y-40779285D01*
X119860476Y-40874523D01*
X119955714Y-40969761D01*
X120098571Y-41017380D01*
X120193809Y-41017380D01*
X120336666Y-40969761D01*
X120384285Y-40922142D01*
X120384285Y-40588809D01*
X120193809Y-40588809D01*
X120812857Y-41017380D02*
X120812857Y-40017380D01*
X121193809Y-40017380D01*
X121289047Y-40065000D01*
X121336666Y-40112619D01*
X121384285Y-40207857D01*
X121384285Y-40350714D01*
X121336666Y-40445952D01*
X121289047Y-40493571D01*
X121193809Y-40541190D01*
X120812857Y-40541190D01*
X121812857Y-41017380D02*
X121812857Y-40017380D01*
X122479523Y-40017380D02*
X122670000Y-40017380D01*
X122765238Y-40065000D01*
X122860476Y-40160238D01*
X122908095Y-40350714D01*
X122908095Y-40684047D01*
X122860476Y-40874523D01*
X122765238Y-40969761D01*
X122670000Y-41017380D01*
X122479523Y-41017380D01*
X122384285Y-40969761D01*
X122289047Y-40874523D01*
X122241428Y-40684047D01*
X122241428Y-40350714D01*
X122289047Y-40160238D01*
X122384285Y-40065000D01*
X122479523Y-40017380D01*
X124003333Y-40017380D02*
X124622380Y-40017380D01*
X124289047Y-40398333D01*
X124431904Y-40398333D01*
X124527142Y-40445952D01*
X124574761Y-40493571D01*
X124622380Y-40588809D01*
X124622380Y-40826904D01*
X124574761Y-40922142D01*
X124527142Y-40969761D01*
X124431904Y-41017380D01*
X124146190Y-41017380D01*
X124050952Y-40969761D01*
X124003333Y-40922142D01*
X124955714Y-40017380D02*
X125574761Y-40017380D01*
X125241428Y-40398333D01*
X125384285Y-40398333D01*
X125479523Y-40445952D01*
X125527142Y-40493571D01*
X125574761Y-40588809D01*
X125574761Y-40826904D01*
X125527142Y-40922142D01*
X125479523Y-40969761D01*
X125384285Y-41017380D01*
X125098571Y-41017380D01*
X125003333Y-40969761D01*
X124955714Y-40922142D01*
X186036190Y-115152380D02*
X186036190Y-114152380D01*
X187083809Y-115152380D02*
X186750476Y-114676190D01*
X186512380Y-115152380D02*
X186512380Y-114152380D01*
X186893333Y-114152380D01*
X186988571Y-114200000D01*
X187036190Y-114247619D01*
X187083809Y-114342857D01*
X187083809Y-114485714D01*
X187036190Y-114580952D01*
X186988571Y-114628571D01*
X186893333Y-114676190D01*
X186512380Y-114676190D01*
X188179047Y-115247619D02*
X188083809Y-115200000D01*
X187988571Y-115104761D01*
X187845714Y-114961904D01*
X187750476Y-114914285D01*
X187655238Y-114914285D01*
X187702857Y-115152380D02*
X187607619Y-115104761D01*
X187512380Y-115009523D01*
X187464761Y-114819047D01*
X187464761Y-114485714D01*
X187512380Y-114295238D01*
X187607619Y-114200000D01*
X187702857Y-114152380D01*
X187893333Y-114152380D01*
X187988571Y-114200000D01*
X188083809Y-114295238D01*
X188131428Y-114485714D01*
X188131428Y-114819047D01*
X188083809Y-115009523D01*
X187988571Y-115104761D01*
X187893333Y-115152380D01*
X187702857Y-115152380D01*
X124983809Y-111752380D02*
X125602857Y-111752380D01*
X125269523Y-112133333D01*
X125412380Y-112133333D01*
X125507619Y-112180952D01*
X125555238Y-112228571D01*
X125602857Y-112323809D01*
X125602857Y-112561904D01*
X125555238Y-112657142D01*
X125507619Y-112704761D01*
X125412380Y-112752380D01*
X125126666Y-112752380D01*
X125031428Y-112704761D01*
X124983809Y-112657142D01*
X126031428Y-112657142D02*
X126079047Y-112704761D01*
X126031428Y-112752380D01*
X125983809Y-112704761D01*
X126031428Y-112657142D01*
X126031428Y-112752380D01*
X126412380Y-111752380D02*
X127031428Y-111752380D01*
X126698095Y-112133333D01*
X126840952Y-112133333D01*
X126936190Y-112180952D01*
X126983809Y-112228571D01*
X127031428Y-112323809D01*
X127031428Y-112561904D01*
X126983809Y-112657142D01*
X126936190Y-112704761D01*
X126840952Y-112752380D01*
X126555238Y-112752380D01*
X126460000Y-112704761D01*
X126412380Y-112657142D01*
X127317142Y-111752380D02*
X127650476Y-112752380D01*
X127983809Y-111752380D01*
X166045714Y-112604761D02*
X166188571Y-112652380D01*
X166426666Y-112652380D01*
X166521904Y-112604761D01*
X166569523Y-112557142D01*
X166617142Y-112461904D01*
X166617142Y-112366666D01*
X166569523Y-112271428D01*
X166521904Y-112223809D01*
X166426666Y-112176190D01*
X166236190Y-112128571D01*
X166140952Y-112080952D01*
X166093333Y-112033333D01*
X166045714Y-111938095D01*
X166045714Y-111842857D01*
X166093333Y-111747619D01*
X166140952Y-111700000D01*
X166236190Y-111652380D01*
X166474285Y-111652380D01*
X166617142Y-111700000D01*
X167045714Y-112652380D02*
X167045714Y-111652380D01*
X167283809Y-111652380D01*
X167426666Y-111700000D01*
X167521904Y-111795238D01*
X167569523Y-111890476D01*
X167617142Y-112080952D01*
X167617142Y-112223809D01*
X167569523Y-112414285D01*
X167521904Y-112509523D01*
X167426666Y-112604761D01*
X167283809Y-112652380D01*
X167045714Y-112652380D01*
X167998095Y-112366666D02*
X168474285Y-112366666D01*
X167902857Y-112652380D02*
X168236190Y-111652380D01*
X168569523Y-112652380D01*
X120493809Y-63802380D02*
X121112857Y-63802380D01*
X120779523Y-64183333D01*
X120922380Y-64183333D01*
X121017619Y-64230952D01*
X121065238Y-64278571D01*
X121112857Y-64373809D01*
X121112857Y-64611904D01*
X121065238Y-64707142D01*
X121017619Y-64754761D01*
X120922380Y-64802380D01*
X120636666Y-64802380D01*
X120541428Y-64754761D01*
X120493809Y-64707142D01*
X121541428Y-64707142D02*
X121589047Y-64754761D01*
X121541428Y-64802380D01*
X121493809Y-64754761D01*
X121541428Y-64707142D01*
X121541428Y-64802380D01*
X121922380Y-63802380D02*
X122541428Y-63802380D01*
X122208095Y-64183333D01*
X122350952Y-64183333D01*
X122446190Y-64230952D01*
X122493809Y-64278571D01*
X122541428Y-64373809D01*
X122541428Y-64611904D01*
X122493809Y-64707142D01*
X122446190Y-64754761D01*
X122350952Y-64802380D01*
X122065238Y-64802380D01*
X121970000Y-64754761D01*
X121922380Y-64707142D01*
X122827142Y-63802380D02*
X123160476Y-64802380D01*
X123493809Y-63802380D01*
X122023809Y-29752380D02*
X122642857Y-29752380D01*
X122309523Y-30133333D01*
X122452380Y-30133333D01*
X122547619Y-30180952D01*
X122595238Y-30228571D01*
X122642857Y-30323809D01*
X122642857Y-30561904D01*
X122595238Y-30657142D01*
X122547619Y-30704761D01*
X122452380Y-30752380D01*
X122166666Y-30752380D01*
X122071428Y-30704761D01*
X122023809Y-30657142D01*
X123071428Y-30657142D02*
X123119047Y-30704761D01*
X123071428Y-30752380D01*
X123023809Y-30704761D01*
X123071428Y-30657142D01*
X123071428Y-30752380D01*
X123452380Y-29752380D02*
X124071428Y-29752380D01*
X123738095Y-30133333D01*
X123880952Y-30133333D01*
X123976190Y-30180952D01*
X124023809Y-30228571D01*
X124071428Y-30323809D01*
X124071428Y-30561904D01*
X124023809Y-30657142D01*
X123976190Y-30704761D01*
X123880952Y-30752380D01*
X123595238Y-30752380D01*
X123500000Y-30704761D01*
X123452380Y-30657142D01*
X124357142Y-29752380D02*
X124690476Y-30752380D01*
X125023809Y-29752380D01*
D12*
%TO.C,R11*%
X133772380Y-48142857D02*
X133296190Y-48476190D01*
X133772380Y-48714285D02*
X132772380Y-48714285D01*
X132772380Y-48333333D01*
X132820000Y-48238095D01*
X132867619Y-48190476D01*
X132962857Y-48142857D01*
X133105714Y-48142857D01*
X133200952Y-48190476D01*
X133248571Y-48238095D01*
X133296190Y-48333333D01*
X133296190Y-48714285D01*
X133772380Y-47190476D02*
X133772380Y-47761904D01*
X133772380Y-47476190D02*
X132772380Y-47476190D01*
X132915238Y-47571428D01*
X133010476Y-47666666D01*
X133058095Y-47761904D01*
X133772380Y-46238095D02*
X133772380Y-46809523D01*
X133772380Y-46523809D02*
X132772380Y-46523809D01*
X132915238Y-46619047D01*
X133010476Y-46714285D01*
X133058095Y-46809523D01*
%TO.C,X9*%
X160182380Y-109309523D02*
X161182380Y-108642857D01*
X160182380Y-108642857D02*
X161182380Y-109309523D01*
X161182380Y-108214285D02*
X161182380Y-108023809D01*
X161134761Y-107928571D01*
X161087142Y-107880952D01*
X160944285Y-107785714D01*
X160753809Y-107738095D01*
X160372857Y-107738095D01*
X160277619Y-107785714D01*
X160230000Y-107833333D01*
X160182380Y-107928571D01*
X160182380Y-108119047D01*
X160230000Y-108214285D01*
X160277619Y-108261904D01*
X160372857Y-108309523D01*
X160610952Y-108309523D01*
X160706190Y-108261904D01*
X160753809Y-108214285D01*
X160801428Y-108119047D01*
X160801428Y-107928571D01*
X160753809Y-107833333D01*
X160706190Y-107785714D01*
X160610952Y-107738095D01*
%TO.C,U1*%
X144721409Y-114000170D02*
X144721409Y-114810433D01*
X144769072Y-114905758D01*
X144816734Y-114953421D01*
X144912059Y-115001083D01*
X145102709Y-115001083D01*
X145198034Y-114953421D01*
X145245697Y-114905758D01*
X145293359Y-114810433D01*
X145293359Y-114000170D01*
X146294272Y-115001083D02*
X145722322Y-115001083D01*
X146008297Y-115001083D02*
X146008297Y-114000170D01*
X145912972Y-114143158D01*
X145817647Y-114238483D01*
X145722322Y-114286146D01*
%TO.C,X3*%
X136562380Y-109209523D02*
X137562380Y-108542857D01*
X136562380Y-108542857D02*
X137562380Y-109209523D01*
X136562380Y-108257142D02*
X136562380Y-107638095D01*
X136943333Y-107971428D01*
X136943333Y-107828571D01*
X136990952Y-107733333D01*
X137038571Y-107685714D01*
X137133809Y-107638095D01*
X137371904Y-107638095D01*
X137467142Y-107685714D01*
X137514761Y-107733333D01*
X137562380Y-107828571D01*
X137562380Y-108114285D01*
X137514761Y-108209523D01*
X137467142Y-108257142D01*
%TO.C,R12*%
X136572380Y-30992857D02*
X136096190Y-31326190D01*
X136572380Y-31564285D02*
X135572380Y-31564285D01*
X135572380Y-31183333D01*
X135620000Y-31088095D01*
X135667619Y-31040476D01*
X135762857Y-30992857D01*
X135905714Y-30992857D01*
X136000952Y-31040476D01*
X136048571Y-31088095D01*
X136096190Y-31183333D01*
X136096190Y-31564285D01*
X136572380Y-30040476D02*
X136572380Y-30611904D01*
X136572380Y-30326190D02*
X135572380Y-30326190D01*
X135715238Y-30421428D01*
X135810476Y-30516666D01*
X135858095Y-30611904D01*
X135667619Y-29659523D02*
X135620000Y-29611904D01*
X135572380Y-29516666D01*
X135572380Y-29278571D01*
X135620000Y-29183333D01*
X135667619Y-29135714D01*
X135762857Y-29088095D01*
X135858095Y-29088095D01*
X136000952Y-29135714D01*
X136572380Y-29707142D01*
X136572380Y-29088095D01*
%TO.C,X13*%
X127314285Y-34852380D02*
X127980952Y-35852380D01*
X127980952Y-34852380D02*
X127314285Y-35852380D01*
X128885714Y-35852380D02*
X128314285Y-35852380D01*
X128600000Y-35852380D02*
X128600000Y-34852380D01*
X128504761Y-34995238D01*
X128409523Y-35090476D01*
X128314285Y-35138095D01*
X129219047Y-34852380D02*
X129838095Y-34852380D01*
X129504761Y-35233333D01*
X129647619Y-35233333D01*
X129742857Y-35280952D01*
X129790476Y-35328571D01*
X129838095Y-35423809D01*
X129838095Y-35661904D01*
X129790476Y-35757142D01*
X129742857Y-35804761D01*
X129647619Y-35852380D01*
X129361904Y-35852380D01*
X129266666Y-35804761D01*
X129219047Y-35757142D01*
%TO.C,X8*%
X176242380Y-109309523D02*
X177242380Y-108642857D01*
X176242380Y-108642857D02*
X177242380Y-109309523D01*
X176670952Y-108119047D02*
X176623333Y-108214285D01*
X176575714Y-108261904D01*
X176480476Y-108309523D01*
X176432857Y-108309523D01*
X176337619Y-108261904D01*
X176290000Y-108214285D01*
X176242380Y-108119047D01*
X176242380Y-107928571D01*
X176290000Y-107833333D01*
X176337619Y-107785714D01*
X176432857Y-107738095D01*
X176480476Y-107738095D01*
X176575714Y-107785714D01*
X176623333Y-107833333D01*
X176670952Y-107928571D01*
X176670952Y-108119047D01*
X176718571Y-108214285D01*
X176766190Y-108261904D01*
X176861428Y-108309523D01*
X177051904Y-108309523D01*
X177147142Y-108261904D01*
X177194761Y-108214285D01*
X177242380Y-108119047D01*
X177242380Y-107928571D01*
X177194761Y-107833333D01*
X177147142Y-107785714D01*
X177051904Y-107738095D01*
X176861428Y-107738095D01*
X176766190Y-107785714D01*
X176718571Y-107833333D01*
X176670952Y-107928571D01*
%TO.C,X6*%
X207590476Y-52722380D02*
X208257142Y-53722380D01*
X208257142Y-52722380D02*
X207590476Y-53722380D01*
X209066666Y-52722380D02*
X208876190Y-52722380D01*
X208780952Y-52770000D01*
X208733333Y-52817619D01*
X208638095Y-52960476D01*
X208590476Y-53150952D01*
X208590476Y-53531904D01*
X208638095Y-53627142D01*
X208685714Y-53674761D01*
X208780952Y-53722380D01*
X208971428Y-53722380D01*
X209066666Y-53674761D01*
X209114285Y-53627142D01*
X209161904Y-53531904D01*
X209161904Y-53293809D01*
X209114285Y-53198571D01*
X209066666Y-53150952D01*
X208971428Y-53103333D01*
X208780952Y-53103333D01*
X208685714Y-53150952D01*
X208638095Y-53198571D01*
X208590476Y-53293809D01*
%TO.C,X12*%
X127399285Y-27347380D02*
X128065952Y-28347380D01*
X128065952Y-27347380D02*
X127399285Y-28347380D01*
X128970714Y-28347380D02*
X128399285Y-28347380D01*
X128685000Y-28347380D02*
X128685000Y-27347380D01*
X128589761Y-27490238D01*
X128494523Y-27585476D01*
X128399285Y-27633095D01*
X129351666Y-27442619D02*
X129399285Y-27395000D01*
X129494523Y-27347380D01*
X129732619Y-27347380D01*
X129827857Y-27395000D01*
X129875476Y-27442619D01*
X129923095Y-27537857D01*
X129923095Y-27633095D01*
X129875476Y-27775952D01*
X129304047Y-28347380D01*
X129923095Y-28347380D01*
%TO.C,U2*%
X147738095Y-95752380D02*
X147738095Y-96561904D01*
X147785714Y-96657142D01*
X147833333Y-96704761D01*
X147928571Y-96752380D01*
X148119047Y-96752380D01*
X148214285Y-96704761D01*
X148261904Y-96657142D01*
X148309523Y-96561904D01*
X148309523Y-95752380D01*
X148738095Y-95847619D02*
X148785714Y-95800000D01*
X148880952Y-95752380D01*
X149119047Y-95752380D01*
X149214285Y-95800000D01*
X149261904Y-95847619D01*
X149309523Y-95942857D01*
X149309523Y-96038095D01*
X149261904Y-96180952D01*
X148690476Y-96752380D01*
X149309523Y-96752380D01*
%TO.C,X4*%
X127090476Y-69322380D02*
X127757142Y-70322380D01*
X127757142Y-69322380D02*
X127090476Y-70322380D01*
X128566666Y-69655714D02*
X128566666Y-70322380D01*
X128328571Y-69274761D02*
X128090476Y-69989047D01*
X128709523Y-69989047D01*
%TO.C,X7*%
X192482380Y-109009523D02*
X193482380Y-108342857D01*
X192482380Y-108342857D02*
X193482380Y-109009523D01*
X192482380Y-108057142D02*
X192482380Y-107390476D01*
X193482380Y-107819047D01*
%TO.C,X2*%
X127275476Y-53547380D02*
X127942142Y-54547380D01*
X127942142Y-53547380D02*
X127275476Y-54547380D01*
X128275476Y-53642619D02*
X128323095Y-53595000D01*
X128418333Y-53547380D01*
X128656428Y-53547380D01*
X128751666Y-53595000D01*
X128799285Y-53642619D01*
X128846904Y-53737857D01*
X128846904Y-53833095D01*
X128799285Y-53975952D01*
X128227857Y-54547380D01*
X128846904Y-54547380D01*
%TO.C,R13*%
X137132380Y-41892857D02*
X136656190Y-42226190D01*
X137132380Y-42464285D02*
X136132380Y-42464285D01*
X136132380Y-42083333D01*
X136180000Y-41988095D01*
X136227619Y-41940476D01*
X136322857Y-41892857D01*
X136465714Y-41892857D01*
X136560952Y-41940476D01*
X136608571Y-41988095D01*
X136656190Y-42083333D01*
X136656190Y-42464285D01*
X137132380Y-40940476D02*
X137132380Y-41511904D01*
X137132380Y-41226190D02*
X136132380Y-41226190D01*
X136275238Y-41321428D01*
X136370476Y-41416666D01*
X136418095Y-41511904D01*
X136132380Y-40607142D02*
X136132380Y-39988095D01*
X136513333Y-40321428D01*
X136513333Y-40178571D01*
X136560952Y-40083333D01*
X136608571Y-40035714D01*
X136703809Y-39988095D01*
X136941904Y-39988095D01*
X137037142Y-40035714D01*
X137084761Y-40083333D01*
X137132380Y-40178571D01*
X137132380Y-40464285D01*
X137084761Y-40559523D01*
X137037142Y-40607142D01*
%TO.C,X5*%
X207490476Y-25822380D02*
X208157142Y-26822380D01*
X208157142Y-25822380D02*
X207490476Y-26822380D01*
X209014285Y-25822380D02*
X208538095Y-25822380D01*
X208490476Y-26298571D01*
X208538095Y-26250952D01*
X208633333Y-26203333D01*
X208871428Y-26203333D01*
X208966666Y-26250952D01*
X209014285Y-26298571D01*
X209061904Y-26393809D01*
X209061904Y-26631904D01*
X209014285Y-26727142D01*
X208966666Y-26774761D01*
X208871428Y-26822380D01*
X208633333Y-26822380D01*
X208538095Y-26774761D01*
X208490476Y-26727142D01*
%TO.C,U4*%
X164225595Y-23717380D02*
X164225595Y-24526904D01*
X164273214Y-24622142D01*
X164320833Y-24669761D01*
X164416071Y-24717380D01*
X164606547Y-24717380D01*
X164701785Y-24669761D01*
X164749404Y-24622142D01*
X164797023Y-24526904D01*
X164797023Y-23717380D01*
X165701785Y-24050714D02*
X165701785Y-24717380D01*
X165463690Y-23669761D02*
X165225595Y-24384047D01*
X165844642Y-24384047D01*
%TO.C,C5*%
X160537142Y-92966666D02*
X160584761Y-93014285D01*
X160632380Y-93157142D01*
X160632380Y-93252380D01*
X160584761Y-93395238D01*
X160489523Y-93490476D01*
X160394285Y-93538095D01*
X160203809Y-93585714D01*
X160060952Y-93585714D01*
X159870476Y-93538095D01*
X159775238Y-93490476D01*
X159680000Y-93395238D01*
X159632380Y-93252380D01*
X159632380Y-93157142D01*
X159680000Y-93014285D01*
X159727619Y-92966666D01*
X159632380Y-92061904D02*
X159632380Y-92538095D01*
X160108571Y-92585714D01*
X160060952Y-92538095D01*
X160013333Y-92442857D01*
X160013333Y-92204761D01*
X160060952Y-92109523D01*
X160108571Y-92061904D01*
X160203809Y-92014285D01*
X160441904Y-92014285D01*
X160537142Y-92061904D01*
X160584761Y-92109523D01*
X160632380Y-92204761D01*
X160632380Y-92442857D01*
X160584761Y-92538095D01*
X160537142Y-92585714D01*
%TO.C,X11*%
X127114285Y-42847380D02*
X127780952Y-43847380D01*
X127780952Y-42847380D02*
X127114285Y-43847380D01*
X128685714Y-43847380D02*
X128114285Y-43847380D01*
X128400000Y-43847380D02*
X128400000Y-42847380D01*
X128304761Y-42990238D01*
X128209523Y-43085476D01*
X128114285Y-43133095D01*
X129638095Y-43847380D02*
X129066666Y-43847380D01*
X129352380Y-43847380D02*
X129352380Y-42847380D01*
X129257142Y-42990238D01*
X129161904Y-43085476D01*
X129066666Y-43133095D01*
%TO.C,X1*%
X207490476Y-37982380D02*
X208157142Y-38982380D01*
X208157142Y-37982380D02*
X207490476Y-38982380D01*
X209061904Y-38982380D02*
X208490476Y-38982380D01*
X208776190Y-38982380D02*
X208776190Y-37982380D01*
X208680952Y-38125238D01*
X208585714Y-38220476D01*
X208490476Y-38268095D01*
%TO.C,X10*%
X209114285Y-86842380D02*
X209780952Y-87842380D01*
X209780952Y-86842380D02*
X209114285Y-87842380D01*
X210685714Y-87842380D02*
X210114285Y-87842380D01*
X210400000Y-87842380D02*
X210400000Y-86842380D01*
X210304761Y-86985238D01*
X210209523Y-87080476D01*
X210114285Y-87128095D01*
X211304761Y-86842380D02*
X211400000Y-86842380D01*
X211495238Y-86890000D01*
X211542857Y-86937619D01*
X211590476Y-87032857D01*
X211638095Y-87223333D01*
X211638095Y-87461428D01*
X211590476Y-87651904D01*
X211542857Y-87747142D01*
X211495238Y-87794761D01*
X211400000Y-87842380D01*
X211304761Y-87842380D01*
X211209523Y-87794761D01*
X211161904Y-87747142D01*
X211114285Y-87651904D01*
X211066666Y-87461428D01*
X211066666Y-87223333D01*
X211114285Y-87032857D01*
X211161904Y-86937619D01*
X211209523Y-86890000D01*
X211304761Y-86842380D01*
%TO.C,C3*%
X136937142Y-92866666D02*
X136984761Y-92914285D01*
X137032380Y-93057142D01*
X137032380Y-93152380D01*
X136984761Y-93295238D01*
X136889523Y-93390476D01*
X136794285Y-93438095D01*
X136603809Y-93485714D01*
X136460952Y-93485714D01*
X136270476Y-93438095D01*
X136175238Y-93390476D01*
X136080000Y-93295238D01*
X136032380Y-93152380D01*
X136032380Y-93057142D01*
X136080000Y-92914285D01*
X136127619Y-92866666D01*
X136032380Y-92533333D02*
X136032380Y-91914285D01*
X136413333Y-92247619D01*
X136413333Y-92104761D01*
X136460952Y-92009523D01*
X136508571Y-91961904D01*
X136603809Y-91914285D01*
X136841904Y-91914285D01*
X136937142Y-91961904D01*
X136984761Y-92009523D01*
X137032380Y-92104761D01*
X137032380Y-92390476D01*
X136984761Y-92485714D01*
X136937142Y-92533333D01*
%TO.C,R8*%
X166952380Y-55966666D02*
X166476190Y-56300000D01*
X166952380Y-56538095D02*
X165952380Y-56538095D01*
X165952380Y-56157142D01*
X166000000Y-56061904D01*
X166047619Y-56014285D01*
X166142857Y-55966666D01*
X166285714Y-55966666D01*
X166380952Y-56014285D01*
X166428571Y-56061904D01*
X166476190Y-56157142D01*
X166476190Y-56538095D01*
X166380952Y-55395238D02*
X166333333Y-55490476D01*
X166285714Y-55538095D01*
X166190476Y-55585714D01*
X166142857Y-55585714D01*
X166047619Y-55538095D01*
X166000000Y-55490476D01*
X165952380Y-55395238D01*
X165952380Y-55204761D01*
X166000000Y-55109523D01*
X166047619Y-55061904D01*
X166142857Y-55014285D01*
X166190476Y-55014285D01*
X166285714Y-55061904D01*
X166333333Y-55109523D01*
X166380952Y-55204761D01*
X166380952Y-55395238D01*
X166428571Y-55490476D01*
X166476190Y-55538095D01*
X166571428Y-55585714D01*
X166761904Y-55585714D01*
X166857142Y-55538095D01*
X166904761Y-55490476D01*
X166952380Y-55395238D01*
X166952380Y-55204761D01*
X166904761Y-55109523D01*
X166857142Y-55061904D01*
X166761904Y-55014285D01*
X166571428Y-55014285D01*
X166476190Y-55061904D01*
X166428571Y-55109523D01*
X166380952Y-55204761D01*
D13*
%TO.C,R11*%
X135735000Y-47761252D02*
X135735000Y-47238748D01*
X134265000Y-47761252D02*
X134265000Y-47238748D01*
%TO.C,X9*%
X163060000Y-109830000D02*
X161730000Y-109830000D01*
X164330000Y-107170000D02*
X174550000Y-107170000D01*
X161730000Y-109830000D02*
X161730000Y-108500000D01*
X174550000Y-109830000D02*
X174550000Y-107170000D01*
X164330000Y-109830000D02*
X174550000Y-109830000D01*
X164330000Y-109830000D02*
X164330000Y-107170000D01*
D14*
%TO.C,U1*%
X142810000Y-120970000D02*
X142810000Y-121150000D01*
X142810000Y-121150000D02*
X150310000Y-121150000D01*
X150310000Y-118430000D02*
X150310000Y-116850000D01*
X142810000Y-118430000D02*
X142810000Y-116850000D01*
X150310000Y-116850000D02*
X150039000Y-116850000D01*
X142810000Y-116850000D02*
X143081000Y-116850000D01*
X150310000Y-121150000D02*
X150310000Y-120970000D01*
D11*
X145360000Y-115800000D02*
G75*
G03*
X145360000Y-115800000I-100000J0D01*
G01*
D13*
%TO.C,X3*%
X133510000Y-107070000D02*
X125830000Y-107070000D01*
X134780000Y-107070000D02*
X136110000Y-107070000D01*
X133510000Y-109730000D02*
X125830000Y-109730000D01*
X125830000Y-107070000D02*
X125830000Y-109730000D01*
X136110000Y-107070000D02*
X136110000Y-108400000D01*
X133510000Y-107070000D02*
X133510000Y-109730000D01*
%TO.C,R12*%
X138535000Y-30611252D02*
X138535000Y-30088748D01*
X137065000Y-30611252D02*
X137065000Y-30088748D01*
%TO.C,X13*%
X127240000Y-36460000D02*
X128570000Y-36460000D01*
X127240000Y-41660000D02*
X129900000Y-41660000D01*
X127240000Y-39060000D02*
X127240000Y-41660000D01*
X127240000Y-39060000D02*
X129900000Y-39060000D01*
X127240000Y-37790000D02*
X127240000Y-36460000D01*
X129900000Y-39060000D02*
X129900000Y-41660000D01*
%TO.C,X8*%
X180390000Y-109830000D02*
X180390000Y-107170000D01*
X180390000Y-109830000D02*
X190610000Y-109830000D01*
X177790000Y-109830000D02*
X177790000Y-108500000D01*
X179120000Y-109830000D02*
X177790000Y-109830000D01*
X190610000Y-109830000D02*
X190610000Y-107170000D01*
X180390000Y-107170000D02*
X190610000Y-107170000D01*
%TO.C,X6*%
X207070000Y-55600000D02*
X207070000Y-54270000D01*
X209730000Y-56870000D02*
X209730000Y-72170000D01*
X207070000Y-56870000D02*
X207070000Y-72170000D01*
X207070000Y-56870000D02*
X209730000Y-56870000D01*
X207070000Y-54270000D02*
X208400000Y-54270000D01*
X207070000Y-72170000D02*
X209730000Y-72170000D01*
%TO.C,X12*%
X127355000Y-34095000D02*
X130015000Y-34095000D01*
X127355000Y-28895000D02*
X128685000Y-28895000D01*
X127355000Y-30225000D02*
X127355000Y-28895000D01*
X127355000Y-31495000D02*
X130015000Y-31495000D01*
X130015000Y-31495000D02*
X130015000Y-34095000D01*
X127355000Y-31495000D02*
X127355000Y-34095000D01*
%TO.C,U2*%
X146590000Y-95210000D02*
X146590000Y-93950000D01*
X152600000Y-95210000D02*
X146590000Y-95210000D01*
X146590000Y-88390000D02*
X146590000Y-89650000D01*
X150350000Y-88390000D02*
X146590000Y-88390000D01*
%TO.C,X4*%
X126670000Y-73470000D02*
X126670000Y-81150000D01*
X129330000Y-73470000D02*
X129330000Y-81150000D01*
X126670000Y-81150000D02*
X129330000Y-81150000D01*
X126670000Y-72200000D02*
X126670000Y-70870000D01*
X126670000Y-73470000D02*
X129330000Y-73470000D01*
X126670000Y-70870000D02*
X128000000Y-70870000D01*
%TO.C,X7*%
X195360000Y-109530000D02*
X194030000Y-109530000D01*
X206850000Y-109530000D02*
X206850000Y-106870000D01*
X194030000Y-109530000D02*
X194030000Y-108200000D01*
X196630000Y-109530000D02*
X196630000Y-106870000D01*
X196630000Y-109530000D02*
X206850000Y-109530000D01*
X196630000Y-106870000D02*
X206850000Y-106870000D01*
%TO.C,X2*%
X129415000Y-57695000D02*
X129415000Y-65375000D01*
X126755000Y-57695000D02*
X126755000Y-65375000D01*
X126755000Y-65375000D02*
X129415000Y-65375000D01*
X126755000Y-55095000D02*
X128085000Y-55095000D01*
X126755000Y-56425000D02*
X126755000Y-55095000D01*
X126755000Y-57695000D02*
X129415000Y-57695000D01*
%TO.C,R13*%
X134265000Y-40988748D02*
X134265000Y-41511252D01*
X135735000Y-40988748D02*
X135735000Y-41511252D01*
%TO.C,X5*%
X206970000Y-29970000D02*
X206970000Y-35110000D01*
X206970000Y-28700000D02*
X206970000Y-27370000D01*
X206970000Y-29970000D02*
X209630000Y-29970000D01*
X206970000Y-27370000D02*
X208300000Y-27370000D01*
X209630000Y-29970000D02*
X209630000Y-35110000D01*
X206970000Y-35110000D02*
X209630000Y-35110000D01*
D14*
%TO.C,U4*%
X162312500Y-25400000D02*
X180312500Y-25400000D01*
X177862500Y-50900000D02*
X180312500Y-50900000D01*
X180312500Y-50900000D02*
X180312500Y-50250000D01*
X180312500Y-25400000D02*
X180312500Y-31900000D01*
X162312500Y-31900000D02*
X162312500Y-25400000D01*
X162312500Y-50250000D02*
X162312500Y-50900000D01*
X162312500Y-50900000D02*
X164762500Y-50900000D01*
D10*
X161412500Y-32900000D02*
G75*
G03*
X161412500Y-32900000I-100000J0D01*
G01*
D13*
%TO.C,C5*%
X159235000Y-92538748D02*
X159235000Y-93061252D01*
X157765000Y-92538748D02*
X157765000Y-93061252D01*
%TO.C,X11*%
X127070000Y-45725000D02*
X127070000Y-44395000D01*
X127070000Y-46995000D02*
X127070000Y-49595000D01*
X127070000Y-46995000D02*
X129730000Y-46995000D01*
X127070000Y-49595000D02*
X129730000Y-49595000D01*
X127070000Y-44395000D02*
X128400000Y-44395000D01*
X129730000Y-46995000D02*
X129730000Y-49595000D01*
%TO.C,X1*%
X206970000Y-40860000D02*
X206970000Y-39530000D01*
X206970000Y-49810000D02*
X209630000Y-49810000D01*
X206970000Y-39530000D02*
X208300000Y-39530000D01*
X206970000Y-42130000D02*
X206970000Y-49810000D01*
X206970000Y-42130000D02*
X209630000Y-42130000D01*
X209630000Y-42130000D02*
X209630000Y-49810000D01*
%TO.C,X10*%
X211730000Y-85060000D02*
X211730000Y-86390000D01*
X211730000Y-83790000D02*
X211730000Y-76110000D01*
X211730000Y-76110000D02*
X209070000Y-76110000D01*
X211730000Y-86390000D02*
X210400000Y-86390000D01*
X209070000Y-83790000D02*
X209070000Y-76110000D01*
X211730000Y-83790000D02*
X209070000Y-83790000D01*
%TO.C,C3*%
X134165000Y-92438748D02*
X134165000Y-92961252D01*
X135635000Y-92438748D02*
X135635000Y-92961252D01*
%TD*%
M02*
